<svg viewBox="0 0 125 21" xmlns="http://www.w3.org/2000/svg"><defs/><defs><filter id="filter-1"><feColorMatrix in="SourceGraphic" values="0 0 0 0 1.000000 0 0 0 0 1.000000 0 0 0 0 1.000000 0 0 0 1.000000 0"/></filter></defs><g id="Redemption-+-Stacking" stroke="none" stroke-width="1" fill="none" fill-rule="evenodd"><g id="appsumo-logo" transform="translate(-255 -33)" filter="url(#filter-1)"><g transform="translate(255 33)" fill="#231F20" fill-rule="nonzero"><path d="M78.9,12.6 C78.9,15.9 77.4,15.9 76.6,15.9 C75.9,15.9 74.3,15.9 74.3,12.6 L74.3,3.4 L70.5,3.4 L70.5,13.2 C70.5,17 73,19.6 76.6,19.6 C80.2,19.6 82.7,17 82.7,13.2 L82.7,3.4 L78.9,3.4 L78.9,12.6 Z" id="Path"/><path d="M116.4 3C111.7 3 107.9 6.8 107.9 11.5 107.9 16.2 111.6 20 116.4 20 121.2 20 124.9 16.3 124.9 11.5 124.9 6.8 121.1 3 116.4 3zM116.4 16.1C113.9 16.1 111.8 14 111.8 11.5 111.8 8.9 113.8 6.9 116.4 6.9 119 6.9 121 8.9 121 11.5 121 14 119 16.1 116.4 16.1zM8.7.8L.2 19.5 4.5 19.5 6.1 15.9 11.3 15.9 12.9 19.5 17.2 19.5 8.7.8zM7.1 12.7L8.7 8.8 10.3 12.7 7.1 12.7zM27.2 3.5L21 3.5 21 19.2 24.9 19.2 24.9 14.7 27 14.7C30.9 14.7 33.3 12.5 33.3 9.1L33.3 9.1C33.3 5.6 31 3.5 27.2 3.5zM29.3 9.2C29.3 10.5 28.4 11.3 26.9 11.3L24.9 11.3 24.9 7 26.9 7C28.5 7 29.3 7.8 29.3 9.2L29.3 9.2zM43.4 3.5L37.2 3.5 37.2 19.2 41.1 19.2 41.1 14.7 43.2 14.7C47.1 14.7 49.5 12.5 49.5 9.1L49.5 9.1C49.4 5.6 47.1 3.5 43.4 3.5zM45.5 9.2C45.5 10.5 44.6 11.3 43.1 11.3L41.1 11.3 41.1 7 43.1 7C44.6 7 45.5 7.8 45.5 9.2L45.5 9.2z" id="Shape"/><path d="M61 8.5C57.9 7.7 57.3 7.3 57.3 6.3L57.3 6.2C57.3 5.3 58.1 4.8 59.5 4.8 60.9 4.8 62.4 5.4 64.1 6.5L64.2 6.6 66.4 3.4 66.3 3.3C64.4 1.8 62.1 1 59.6 1 55.8 1 53.2 3.3 53.2 6.5L53.2 6.6C53.2 10.4 55.8 11.3 59.2 12.2 62.2 13 62.7 13.5 62.7 14.3L62.7 14.4C62.7 15.4 61.8 15.9 60.3 15.9 58.5 15.9 56.8 15.2 55.1 13.8L55 13.7 52.5 16.7 52.6 16.8C54.7 18.7 57.4 19.7 60.3 19.7 64.4 19.7 67 17.5 67 14L67 14C66.8 10.7 64.5 9.4 61 8.5zM95.7 20.1L91 12.1 89.6 19.5 86.2 19.5 89.7 3 95.9 13.4 101.8 3 105.3 19.5 101.7 19.5 100.3 12.2z" id="Path"/></g></g></g></svg>