<svg version="1.1" id="Layer_1" xmlns="http://www.w3.org/2000/svg" xmlns:xlink="http://www.w3.org/1999/xlink" x="0px" y="0px" style="enable-background:new 0 0 300 300;" xml:space="preserve" viewBox="68 62.4 163.82 175.23">
<style type="text/css">
	.st0{fill:#010101;}
</style>
<g id="Layer_1_00000101798235720862529850000013039145323076411838_">
	<g>
		<path class="st0" d="M80,213c-4.7,0-9.2-2.8-11.1-7.4c-2.5-6.1,0.4-13,6.5-15.5l139.9-57.2c6.1-2.5,13.1,0.4,15.6,6.5    s-0.4,13-6.5,15.5L84.6,212.1C83.1,212.7,81.6,213,80,213L80,213z"/>
		<path class="st0" d="M80,167.7c-4.7,0-9.2-2.8-11.1-7.4c-2.5-6.1,0.4-13,6.5-15.5l139.9-57.2c6.1-2.5,13.1,0.4,15.6,6.5    s-0.4,13-6.5,15.5L84.6,166.8C83.1,167.4,81.6,167.7,80,167.7L80,167.7z"/>
		<path class="st0" d="M80,120.9c-4.7,0-9.2-2.8-11.1-7.4c-2.5-6.1,0.5-13,6.6-15.5l85.8-34.7c6.1-2.5,13.1,0.5,15.6,6.5    c2.5,6.1-0.5,13-6.6,15.5L84.6,120C83.1,120.6,81.5,120.9,80,120.9z"/>
		<path class="st0" d="M133.9,237.6c-4.7,0-9.2-2.8-11.1-7.4c-2.5-6.1,0.5-13,6.6-15.5l85.8-34.7c6.1-2.5,13.1,0.5,15.6,6.5    c2.5,6.1-0.5,13-6.6,15.5l-85.8,34.7C136.9,237.3,135.4,237.6,133.9,237.6L133.9,237.6z"/>
	</g>
</g>
</svg>