<?xml version="1.0" encoding="utf-8"?>
<!-- Generator: Adobe Illustrator 25.1.0, SVG Export Plug-In . SVG Version: 6.00 Build 0)  -->
<svg version="1.1" id="Layer_1" xmlns="http://www.w3.org/2000/svg" xmlns:xlink="http://www.w3.org/1999/xlink" x="0px" y="0px"
	 viewBox="0 0 512 512" style="enable-background:new 0 0 512 512;" xml:space="preserve">
<style type="text/css">
	.st0Unique{fill:#FFFFFF !important;}
</style>
<g>
	<path class="st0Unique" d="M373.2,121.7c18.1,0,32.7-14.3,32.7-32.1V55.8c0-17.9-14.7-32.2-32.7-32.2s-32.7,14.3-32.7,32.2v33.7
		C340.5,107.3,355.1,121.7,373.2,121.7z"/>
	<path class="st0Unique" d="M489.4,79.3h-65.9v16.4c0,27.1-22.3,49.1-49.9,49.1S324,122.8,324,95.7V79.3H191v16.4
		c0,27.1-22.3,49.1-49.9,49.1c-27.5,0-49.9-22.1-49.9-49.1V79.3l-66.3-0.8v410h33.3h398.6l33.2-0.1L489.4,79.3z M456.7,455.8
		L456.7,455.8H58.1V193.9h398.6L456.7,455.8L456.7,455.8z"/>
	<path class="st0Unique" d="M140.7,121.7c18.1,0,32.7-14.3,32.7-32.1V55.8c0-17.9-14.7-32.2-32.7-32.2S108,37.9,108,55.8v33.7
		C108,107.3,122.6,121.7,140.7,121.7z"/>
	<rect x="191.1" y="229" class="st0Unique" width="52.3" height="45.5"/>
	<rect x="275.8" y="229" class="st0Unique" width="52.4" height="45.5"/>
	<rect x="354.3" y="229" class="st0Unique" width="52.3" height="45.5"/>
	<rect x="191.1" y="304.7" class="st0Unique" width="52.3" height="45.5"/>
	<rect x="275.8" y="304.7" class="st0Unique" width="52.4" height="45.5"/>
	<rect x="354.3" y="304.7" class="st0Unique" width="52.3" height="45.5"/>
	<rect x="191.1" y="381.8" class="st0Unique" width="52.3" height="45.5"/>
	<rect x="108" y="304.7" class="st0Unique" width="52.3" height="45.5"/>
	<rect x="108" y="381.8" class="st0Unique" width="52.3" height="45.5"/>
	<rect x="275.8" y="381.8" class="st0Unique" width="52.4" height="45.5"/>
	<rect x="354.3" y="381.8" class="st0Unique" width="52.3" height="45.5"/>
</g>
</svg>
