<svg version="1.1" id="Layer_1" xmlns="http://www.w3.org/2000/svg" xmlns:xlink="http://www.w3.org/1999/xlink" x="0px" y="0px" style="enable-background:new 0 0 300 300;" xml:space="preserve" viewBox="85.3 74.58 129.33 150.53">
<style type="text/css">
	.st0{fill-rule:evenodd;clip-rule:evenodd;fill:#FFFFFF;}
</style>
<g id="Layer_2_00000167353849586398857760000014022445717685749431_">
	<path class="st0" d="M139.3,149.5c0,11.5,9.3,20.8,20.8,20.8s20.8-9.3,20.8-20.8s-9.3-20.8-20.8-20.8S139.3,138,139.3,149.5    M213.5,198.2l-15.7-15.8c-1.4-1.4-3.7-1.5-5.2,0l0,0c-8.6,8.4-20.2,13.1-32.3,13.1c-25.1-0.1-45.3-20.4-45.3-45.5   s20.2-45.4,45.3-45.5c11.1,0,21.1,4,29.3,11.1c1.4,1.3,3.7,1.2,5-0.2l15.7-15.8c1.4-1.4,1.5-3.7,0-5.2c-0.1-0.1-0.1-0.1-0.2-0.2   c-13.7-12.3-30.9-19.6-49.9-19.6c-41.3,0-74.9,33.8-74.9,75.3s33.6,75.2,74.9,75.2c20.3,0,39.3-8.1,53.2-21.8   C215,202,215,199.6,213.5,198.2"/>
</g>
</svg>