<svg version="1.1" id="Layer_1" xmlns="http://www.w3.org/2000/svg" xmlns:xlink="http://www.w3.org/1999/xlink" x="0px" y="0px" style="enable-background:new 0 0 300 300;" xml:space="preserve" viewBox="79.3 82.18 143.13 129.2">
<style type="text/css">
	.st0{fill:#FFFFFF;}
</style>
<g id="Layer_1_00000173122469734898721100000004150334201346396040_">
	<g>
		<g>
			<path class="st0" d="M98.8,85.3c1-1,2.1-1.8,3.4-2.3s2.6-0.8,4-0.8s2.7,0.3,4,0.9s2.4,1.4,3.3,2.4l26.6,29.7l-11.7,12.9     l-29.1-27.6c-1.1-1-1.9-2.1-2.5-3.4s-0.9-2.7-1-4.1c0-1.4,0.2-2.8,0.7-4.2C97,87.5,97.8,86.3,98.8,85.3z"/>
			<path class="st0" d="M221.7,191.8c-0.2,0.2-0.4,0.3-0.6,0.4c-0.2,0.1-0.5,0.1-0.7,0.1s-0.5-0.1-0.7-0.1c-0.2-0.1-0.4-0.2-0.6-0.4     l-24.8-28.6c-0.9-0.8-2-1.2-3.1-1.2c-1.2,0-2.2,0.5-3.1,1.3c-0.8,0.8-1.3,1.9-1.3,3.1s0.4,2.3,1.2,3.1l25.1,28.6     c0.3,0.3,0.5,0.7,0.7,1c0.2,0.4,0.2,0.8,0.2,1.2s-0.1,0.8-0.2,1.2c-0.2,0.4-0.4,0.7-0.7,1s-0.6,0.5-1,0.7s-0.8,0.2-1.2,0.2     s-0.8-0.1-1.2-0.2c-0.4-0.2-0.7-0.4-1-0.7l-27.9-25.9c-0.9-0.8-2-1.2-3.1-1.2c-1.2,0-2.2,0.5-3.1,1.3s-1.3,1.9-1.3,3.1     c0,1.2,0.4,2.3,1.2,3.1l28.1,25.3c0.3,0.3,0.5,0.7,0.5,1.1c0,0.4,0,0.8-0.2,1.1s-0.5,0.6-0.9,0.8s-0.8,0.2-1.2,0.1     c0,0-19.5-7.4-29.4-17.5c-5.6-5.4-8.8-12.8-9.1-20.5c0-6.8,0.8-11.7-5.1-17.7l-7.3-7.1l-7.9,7.3c-5.8,7.6-4.6,12.9-4.6,19     c-0.4,8.2-3.8,16-9.6,21.8c-11.9,12.4-34.2,19-43.8,9.1s-3.3-32.7,8.9-44.9c2.7-3,6.1-5.4,9.8-7.1c3.7-1.7,7.7-2.6,11.8-2.8     c6.3,0,11.2,1.3,18.2-4.8l54.3-60c0.9-1,2-1.9,3.3-2.4c1.3-0.6,2.6-0.9,4-0.9s2.8,0.2,4,0.8c1.3,0.5,2.4,1.3,3.4,2.3     s1.7,2.2,2.3,3.5c0.5,1.3,0.8,2.7,0.7,4.1c0,1.4-0.3,2.8-0.9,4c-0.6,1.3-1.4,2.4-2.4,3.4l-40.3,38l6.6,7.3     c6.1,5.8,10.6,4.8,17.2,5.1c7.7,0.5,14.9,3.8,20.3,9.4c9.9,10.1,17.2,29.9,17.2,29.9C222.3,190.9,222,191.4,221.7,191.8     L221.7,191.8z"/>
		</g>
	</g>
</g>
<g id="Layer_2_00000083077777726993559680000008468524689214533041_">
</g>
</svg>