<?xml version="1.0" encoding="utf-8"?>
<!-- Generator: Adobe Illustrator 27.1.1, SVG Export Plug-In . SVG Version: 6.00 Build 0)  -->
<svg version="1.1" id="Layer_1" xmlns="http://www.w3.org/2000/svg" xmlns:xlink="http://www.w3.org/1999/xlink" x="0px" y="0px"
	 viewBox="0 0 300 300" style="enable-background:new 0 0 300 300;" xml:space="preserve">
<style type="text/css">
	.st0{fill:#1F5EA9;}
	.st1{fill:#FFFFFF;}
</style>
<g id="Layer_2_00000052804435094968921140000010354859123861548684_">
	<rect class="st0" width="300" height="300"/>
</g>
<g>
	<path class="st1" d="M206,213c-1.9-1.7-4.7-2.6-8.5-2.6c-2.1,0-4,0.3-5.6,1c-1.6,0.7-2.9,1.5-3.8,2.6c-1,1.1-1.7,2.4-2.2,3.8
		c-0.5,1.4-0.7,2.9-0.7,4.3c0,1.8,0.3,3.3,0.8,4.5c0.5,1.2,1.3,2.3,2.3,3.1c1,0.8,2.1,1.4,3.5,1.8s2.9,0.6,4.5,0.6
		c2.1,0,3.8-0.3,5.2-0.8c1.4-0.5,2.6-1.2,3.6-2c0.9-0.8,1.7-1.7,2.2-2.7c0.5-1,0.9-1.9,1.1-2.7c0.2-0.9,0.4-1.6,0.4-2.3
		c0-0.7,0.1-1.1,0.1-1.2C208.9,217.2,207.9,214.8,206,213z"/>
	<path class="st1" d="M182.3,194.9c-4.3,2.9-13.6,14.1-21.2,14.9c-1.7,0.2-3.9-2.9-4.2-7.6c0-0.6,0-1.2-0.1-1.8c0,0,0,0,0,0
		c0-3.3,0.4-6.5,1.6-11c0.1-0.5,1-3.1,1.3-3.6c2.6-5,5.7-12.6,8.2-18.2c2.5-5.5,5-11.1,7.5-16.8c2.5-5.7,4.8-11.4,7.1-17.1
		c2.2-5.7,4.1-11.4,5.7-17.1c1.6-5.7,2.7-11.2,3.5-16.8c1.3-9.4,0.4-31.8-14-31.8c-8.5,0-17.7,3.8-24.7,16.1
		c-10,17.5-13.6,60.7-14.1,72.3c-23.1-13.2-40.8,10-46.8,34.8c-1.7,6.9-3.8,37.6,15.2,38.6c2.5,0.1,5.1-0.4,7.7-1.3
		c2.6-0.9,5.3-2,7.9-3.4c2.7-1.4,5.3-3.1,7.8-5c2.6-1.9,5-4,7.4-6.1c0.3,1.1,0.5,2.1,0.9,3.1c0,0,0,0,0,0c0.2,0.5,0.4,1,0.6,1.6
		c0,0.1,0,0.2,0.1,0.2l0,0c1.7,3.8,5,8.3,11.2,8.3c22.3,0,37.5-22.7,39.7-27.7C192.8,194.4,186.6,192,182.3,194.9z M135.2,195.3
		c-1.7,2.9-3.5,5.5-5.4,7.8c-0.8,1-1.7,2-2.6,2.9c-0.9,0.9-1.9,1.7-2.9,2.5c-1,0.7-14,9.1-14-5c0-21.7,14.1-42.7,27.5-28.9
		C137.7,175.7,135.2,194.5,135.2,195.3z M155.6,142.1c0.8-7.6,1.2-11.4,1.2-11.4s0.8-4.1,2.5-12.4c1.7-8.3,3.2-14.3,4.7-18
		c1.4-3.7,2.9-6.7,4.4-9s3.1-3.5,4.6-3.6c0.4,0,0.7,0.5,0.9,1.6c0.2,1.1,0.3,2.5,0.5,4.1c0,5.1-0.7,10.7-2,16.7
		c-1.3,6-2.9,12.1-4.8,18.2c-2,6.1-4.1,12.1-6.3,17.9c-2.1,5.5-4.2,10.5-6.2,14.9c-0.2-2.9-0.3-5.8-0.3-8.7
		C154.9,149.2,155.2,145.8,155.6,142.1z"/>
</g>
</svg>
