<?xml version="1.0" encoding="utf-8"?>
<!-- Generator: Adobe Illustrator 27.1.1, SVG Export Plug-In . SVG Version: 6.00 Build 0)  -->
<svg version="1.1" id="Layer_1" xmlns="http://www.w3.org/2000/svg" xmlns:xlink="http://www.w3.org/1999/xlink" x="0px" y="0px"
	 viewBox="0 0 500 500" style="enable-background:new 0 0 500 500;" xml:space="preserve">
<style type="text/css">
	.st0{fill:#FFFFFF;}
</style>
<path class="st0" d="M430.8,192.1c-17.3-32.1-51.3-52.1-88.2-52H63.6c-3.9,0-7.3,2.3-8.8,5.9c-1.5,3.5-0.7,7.6,2.1,10.3l60.8,60.3
	c5.4,5.3,12.7,8.3,20.3,8.3h196.8c14-0.1,25.5,11,25.6,24.8c0.1,13.8-11.1,25.2-25.1,25.3H199.5c-3.9,0-7.3,2.3-8.8,5.9
	c-1.5,3.5-0.7,7.6,2.1,10.3l60.8,60.4c5.4,5.3,12.7,8.3,20.3,8.3h61.4C415.1,359.9,475.4,275.7,430.8,192.1L430.8,192.1z"/>
</svg>
