<?xml version="1.0" encoding="utf-8"?>
<!-- Generator: Adobe Illustrator 25.4.1, SVG Export Plug-In . SVG Version: 6.00 Build 0)  -->
<svg version="1.1" id="Layer_1" xmlns="http://www.w3.org/2000/svg" xmlns:xlink="http://www.w3.org/1999/xlink" x="0px" y="0px"
	 viewBox="0 0 300 300" style="enable-background:new 0 0 300 300;" xml:space="preserve">
<style type="text/css">
	.stZia{fill-rule:evenodd;clip-rule:evenodd;fill:#fff !important;}
	.st1{fill:#fff !important;}
</style>
<path class="stZia" d="M103.7,39.2c0-4.5,3.6-8.1,8.1-8.1h113.4c4.5,0,8.1,3.6,8.1,8.1v64.8h8.1c3.1,0,5.9,1.7,7.2,4.5l15.8,31.5
	c6.2,12.4,9.4,26,9.4,39.9v13.3c0,13.4-10.9,24.3-24.3,24.3h-16.2V258c0,4.5-3.6,8.1-8.1,8.1H111.8c-4.5,0-8.1-3.6-8.1-8.1v-40.5
	H85.3c-2.8,4.8-8,8.1-14,8.1H55c-13.4,0-24.3-10.9-24.3-24.3v-89.1c0-13.4,10.9-24.3,24.3-24.3h8.1c10.6,0,19.6,6.8,22.9,16.2h17.6
	V39.2z M119.9,104.1h97.2V47.4h-97.2V104.1z M71.3,112.2c0-4.5-3.6-8.1-8.1-8.1H55c-4.5,0-8.1,3.6-8.1,8.1v89.1
	c0,4.5,3.6,8.1,8.1,8.1h16.2V112.2z M87.5,120.3h149l13.5,27c5.1,10.1,7.7,21.3,7.7,32.6v13.3c0,4.5-3.6,8.1-8.1,8.1H87.5V120.3z
	 M119.9,217.5v32.4h97.2v-32.4H119.9z"/>
<path class="stZia" d="M138.5,63.6c0-3.1,2.5-5.7,5.7-5.7h48.6c3.1,0,5.7,2.5,5.7,5.7s-2.5,5.7-5.7,5.7h-48.6
	C141,69.2,138.5,66.7,138.5,63.6z M138.5,87.9c0-3.1,2.5-5.7,5.7-5.7h48.6c3.1,0,5.7,2.5,5.7,5.7s-2.5,5.7-5.7,5.7h-48.6
	C141,93.5,138.5,91,138.5,87.9z M98,143c0-6.7,5.4-12.2,12.2-12.2h43.8c6.7,0,12.2,5.4,12.2,12.2v11.3c0,6.7-5.4,12.2-12.2,12.2
	h-43.8c-6.7,0-12.2-5.4-12.2-12.2V143z M110.1,142.2c-0.4,0-0.8,0.4-0.8,0.8v11.3c0,0.4,0.4,0.8,0.8,0.8h43.8c0.4,0,0.8-0.4,0.8-0.8
	V143c0-0.4-0.4-0.8-0.8-0.8H110.1z M87.5,203.7c3.1,0,5.7,2.5,5.7,5.7v32.4c0,12.1-9.8,21.9-21.9,21.9s-21.9-9.8-21.9-21.9v-24.3
	c0-3.1,2.5-5.7,5.7-5.7c3.1,0,5.7,2.5,5.7,5.7v24.3c0,5.8,4.7,10.5,10.5,10.5c5.8,0,10.5-4.7,10.5-10.5v-32.4
	C81.8,206.3,84.3,203.7,87.5,203.7z"/>
<path class="stZia" d="M98,181.9c0-3.1,2.5-5.7,5.7-5.7h16.2c3.1,0,5.7,2.5,5.7,5.7c0,3.1-2.5,5.7-5.7,5.7h-16.2
	C100.5,187.5,98,185,98,181.9z M138.5,181.9c0-3.1,2.5-5.7,5.7-5.7h16.2c3.1,0,5.7,2.5,5.7,5.7c0,3.1-2.5,5.7-5.7,5.7h-16.2
	C141,187.5,138.5,185,138.5,181.9z"/>
<path class="st1" d="M191.2,138.9c0,4-3.3,7.3-7.3,7.3c-4,0-7.3-3.3-7.3-7.3s3.3-7.3,7.3-7.3C187.9,131.6,191.2,134.9,191.2,138.9z"
	/>
<path class="st1" d="M191.2,160c0,4-3.3,7.3-7.3,7.3c-4,0-7.3-3.3-7.3-7.3s3.3-7.3,7.3-7.3C187.9,152.7,191.2,156,191.2,160z"/>
<path class="st1" d="M191.2,181.1c0,4-3.3,7.3-7.3,7.3c-4,0-7.3-3.3-7.3-7.3c0-4,3.3-7.3,7.3-7.3C187.9,173.8,191.2,177,191.2,181.1
	z"/>
<path class="st1" d="M212.2,138.9c0,4-3.3,7.3-7.3,7.3s-7.3-3.3-7.3-7.3s3.3-7.3,7.3-7.3S212.2,134.9,212.2,138.9z"/>
<path class="st1" d="M212.2,160c0,4-3.3,7.3-7.3,7.3s-7.3-3.3-7.3-7.3s3.3-7.3,7.3-7.3S212.2,156,212.2,160z"/>
<path class="st1" d="M212.2,181.1c0,4-3.3,7.3-7.3,7.3s-7.3-3.3-7.3-7.3c0-4,3.3-7.3,7.3-7.3S212.2,177,212.2,181.1z"/>
<path class="st1" d="M233.3,138.9c0,4-3.3,7.3-7.3,7.3c-4,0-7.3-3.3-7.3-7.3s3.3-7.3,7.3-7.3C230,131.6,233.3,134.9,233.3,138.9z"/>
<path class="st1" d="M233.3,160c0,4-3.3,7.3-7.3,7.3c-4,0-7.3-3.3-7.3-7.3s3.3-7.3,7.3-7.3C230,152.7,233.3,156,233.3,160z"/>
<path class="st1" d="M233.3,181.1c0,4-3.3,7.3-7.3,7.3c-4,0-7.3-3.3-7.3-7.3c0-4,3.3-7.3,7.3-7.3C230,173.8,233.3,177,233.3,181.1z"
	/>
</svg>
