<svg width="16" height="16" viewBox="0 0 16 16" fill="none" xmlns="http://www.w3.org/2000/svg">
<path fill-rule="evenodd" clip-rule="evenodd" d="M5 1C5 0.723858 5.22386 0.5 5.5 0.5H12.5C12.7761 0.5 13 0.723858 13 1V5H13.5C13.6894 5 13.8625 5.107 13.9472 5.27639L14.9193 7.22066C15.3012 7.98437 15.5 8.82649 15.5 9.68034V10.5C15.5 11.3284 14.8284 12 14 12H13V14.5C13 14.7761 12.7761 15 12.5 15H5.5C5.22386 15 5 14.7761 5 14.5V12H3.86622C3.69331 12.2989 3.37014 12.5 3 12.5H2C1.17157 12.5 0.5 11.8284 0.5 11V5.5C0.5 4.67157 1.17157 4 2 4H2.5C3.15311 4 3.70873 4.4174 3.91465 5H5V1ZM6 5H12V1.5H6V5ZM3 5.5C3 5.22386 2.77614 5 2.5 5H2C1.72386 5 1.5 5.22386 1.5 5.5V11C1.5 11.2761 1.72386 11.5 2 11.5H3V5.5ZM4 6H13.191L14.0249 7.66788C14.3373 8.29273 14.5 8.98174 14.5 9.68034V10.5C14.5 10.7761 14.2761 11 14 11H4V6ZM6 12V14H12V12H6Z" fill="white"/>
<path fill-rule="evenodd" clip-rule="evenodd" d="M7.15 2.5C7.15 2.3067 7.3067 2.15 7.5 2.15H10.5C10.6933 2.15 10.85 2.3067 10.85 2.5C10.85 2.6933 10.6933 2.85 10.5 2.85H7.5C7.3067 2.85 7.15 2.6933 7.15 2.5ZM7.15 4C7.15 3.8067 7.3067 3.65 7.5 3.65H10.5C10.6933 3.65 10.85 3.8067 10.85 4C10.85 4.1933 10.6933 4.35 10.5 4.35H7.5C7.3067 4.35 7.15 4.1933 7.15 4ZM4.65 7.4C4.65 6.98579 4.98579 6.65 5.4 6.65H8.1C8.51421 6.65 8.85 6.98579 8.85 7.4V8.1C8.85 8.51421 8.51421 8.85 8.1 8.85H5.4C4.98579 8.85 4.65 8.51421 4.65 8.1V7.4ZM5.4 7.35C5.37239 7.35 5.35 7.37239 5.35 7.4V8.1C5.35 8.12761 5.37239 8.15 5.4 8.15H8.1C8.12761 8.15 8.15 8.12761 8.15 8.1V7.4C8.15 7.37239 8.12761 7.35 8.1 7.35H5.4ZM4 11.15C4.1933 11.15 4.35 11.3067 4.35 11.5V13.5C4.35 14.2456 3.74558 14.85 3 14.85C2.25442 14.85 1.65 14.2456 1.65 13.5V12C1.65 11.8067 1.8067 11.65 2 11.65C2.1933 11.65 2.35 11.8067 2.35 12V13.5C2.35 13.859 2.64101 14.15 3 14.15C3.35899 14.15 3.65 13.859 3.65 13.5V11.5C3.65 11.3067 3.8067 11.15 4 11.15Z" fill="white"/>
<path fill-rule="evenodd" clip-rule="evenodd" d="M4.65 9.8C4.65 9.6067 4.8067 9.45 5 9.45H6C6.1933 9.45 6.35 9.6067 6.35 9.8C6.35 9.9933 6.1933 10.15 6 10.15H5C4.8067 10.15 4.65 9.9933 4.65 9.8ZM7.15 9.8C7.15 9.6067 7.3067 9.45 7.5 9.45H8.5C8.6933 9.45 8.85 9.6067 8.85 9.8C8.85 9.9933 8.6933 10.15 8.5 10.15H7.5C7.3067 10.15 7.15 9.9933 7.15 9.8Z" fill="white"/>
<path d="M10.4 7.15C10.4 7.39853 10.1985 7.6 9.95 7.6C9.70147 7.6 9.5 7.39853 9.5 7.15C9.5 6.90147 9.70147 6.7 9.95 6.7C10.1985 6.7 10.4 6.90147 10.4 7.15Z" fill="white"/>
<path d="M10.4 8.45C10.4 8.69853 10.1985 8.9 9.95 8.9C9.70147 8.9 9.5 8.69853 9.5 8.45C9.5 8.20147 9.70147 8 9.95 8C10.1985 8 10.4 8.20147 10.4 8.45Z" fill="white"/>
<path d="M10.4 9.75001C10.4 9.99853 10.1985 10.2 9.95 10.2C9.70147 10.2 9.5 9.99853 9.5 9.75001C9.5 9.50148 9.70147 9.30001 9.95 9.30001C10.1985 9.30001 10.4 9.50148 10.4 9.75001Z" fill="white"/>
<path d="M11.7 7.15C11.7 7.39853 11.4985 7.6 11.25 7.6C11.0015 7.6 10.8 7.39853 10.8 7.15C10.8 6.90147 11.0015 6.7 11.25 6.7C11.4985 6.7 11.7 6.90147 11.7 7.15Z" fill="white"/>
<path d="M11.7 8.45C11.7 8.69853 11.4985 8.9 11.25 8.9C11.0015 8.9 10.8 8.69853 10.8 8.45C10.8 8.20147 11.0015 8 11.25 8C11.4985 8 11.7 8.20147 11.7 8.45Z" fill="white"/>
<path d="M11.7 9.75001C11.7 9.99853 11.4985 10.2 11.25 10.2C11.0015 10.2 10.8 9.99853 10.8 9.75001C10.8 9.50148 11.0015 9.30001 11.25 9.30001C11.4985 9.30001 11.7 9.50148 11.7 9.75001Z" fill="white"/>
<path d="M13 7.15C13 7.39853 12.7985 7.6 12.55 7.6C12.3015 7.6 12.1 7.39853 12.1 7.15C12.1 6.90147 12.3015 6.7 12.55 6.7C12.7985 6.7 13 6.90147 13 7.15Z" fill="white"/>
<path d="M13 8.45C13 8.69853 12.7985 8.9 12.55 8.9C12.3015 8.9 12.1 8.69853 12.1 8.45C12.1 8.20147 12.3015 8 12.55 8C12.7985 8 13 8.20147 13 8.45Z" fill="white"/>
<path d="M13 9.75001C13 9.99853 12.7985 10.2 12.55 10.2C12.3015 10.2 12.1 9.99853 12.1 9.75001C12.1 9.50148 12.3015 9.30001 12.55 9.30001C12.7985 9.30001 13 9.50148 13 9.75001Z" fill="white"/>
</svg>
