<?xml version="1.0" encoding="utf-8"?>
<!-- Generator: Adobe Illustrator 25.2.3, SVG Export Plug-In . SVG Version: 6.00 Build 0)  -->
<svg version="1.1" id="Layer_1" xmlns="http://www.w3.org/2000/svg" xmlns:xlink="http://www.w3.org/1999/xlink" x="0px" y="0px"
	 viewBox="0 0 792 612" style="enable-background:new 0 0 792 612;" xml:space="preserve">
<style type="text/css">
	#st0{fill:#1AB680;}
	.st1{fill:#FFFFFF;}
</style>
<g>
	<g>
		<path  id="st0"  d="M318.5,247.9c-11.2-21.4-39.2-29.5-60.2-15.1c-15.1,10.4-20.4,25.5-17.5,43.1c1,6.1-0.7,10.9-3.7,15.6
			c-9.8,15.4-22.7,28.2-37.2,39.4c-3.1,2.4-7,4.9-10.4,4.8c-8.5-0.3-16.3-2.7-21-11.2c-6.3-11.4-13.4-22.4-19.5-33.9
			c-8.7-16.3-15.6-33.3-20.5-51.1c-1.4-5.1-1.5-10.9-1.2-16.3c0.5-6.6,3.4-14.4,3.2-22.6c-0.2-8.1-1.7-12.7-4.6-20
			c-8.1-20.9-23.4-34.1-44.8-39.4c-18.8-4.8-36.8-1-52.8,10.7C13.9,162.4,5.3,177,2.7,194.5c-2.4,16.5,1.2,32.1,10.9,45.7
			c8.3,11.7,19.2,19.9,33.1,24.3c5.3,1.7,10.4,4.4,14.8,7.6c11.9,8.5,21.7,19.5,31.1,30.7c11.7,14.3,22.7,29.2,29.9,46.3
			c2.2,5.4,4.8,11,2.4,17.3c-5.3,13.9-4.9,27.8,1.5,41.2c11.4,23.4,37.3,35.1,62.5,27c25.8-8.1,40.9-35.1,34.8-60.6
			c-0.7-2.9-0.3-6.8,1.2-9.3c4.9-9,10.2-17.8,16-26.1c7.1-10.2,14.6-20,24.8-27.5c3.1-2.2,6.3-3.2,10-2.4c9,1.9,17.6,0,25.8-4.2
			C321.4,293.9,329.6,268.8,318.5,247.9z"/>
		<path  id="st0" d="M221.1,169c9.2,0,16.8,7.6,16.8,16.8v58c2.4-4.2,5.3-8.1,9-11.7V170c0-10.5-8.7-19.2-19.2-19.2H115.6
			c5.4,5.1,10.2,11.2,13.9,18.3h91.6V169z M152.6,158h28.7c1,0,1.7,0.8,1.7,1.7c0,1-0.8,1.7-1.7,1.7h-28.7c-1,0-1.7-0.8-1.7-1.7
			C150.9,158.8,151.7,158,152.6,158z"/>
		<path  id="st0" d="M237.9,428.3c0,9.2-7.6,16.8-16.8,16.8H112.7c-9.2,0-16.8-7.6-16.8-16.8V319.6c-3.1-4.1-6.1-7.8-9-11.5v145.6
			c0,10.5,8.7,19.2,19.2,19.2h121.5c10.5,0,19.2-8.7,19.2-19.2V343.5c-2.9,4.2-5.9,8.8-9,14.3v70.6H237.9z M175,464.7h-16.1
			c-3.1,0-5.6-2.5-5.6-5.6s2.5-5.6,5.6-5.6H175c3.1,0,5.6,2.5,5.6,5.6S178,464.7,175,464.7z"/>
	</g>
	<g>
		<path class="st1" d="M360.8,287c-1.9-1.4-3.2-3.6-3.2-6.3c0-4.2,3.4-7.5,7.6-7.5c2.2,0,3.7,0.7,4.8,1.5c7.6,6.1,16,9.5,26,9.5
			c10,0,16.5-4.8,16.5-11.7v-0.3c0-6.6-3.7-10.2-20.9-14.1c-19.7-4.8-30.9-10.5-30.9-27.7v-0.3c0-16,13.2-26.8,31.6-26.8
			c11.7,0,21,3.1,29.4,8.7c1.9,1,3.6,3.4,3.6,6.4c0,4.2-3.4,7.5-7.6,7.5c-1.5,0-2.9-0.3-4.2-1.2c-7.1-4.6-14.1-7-21.4-7
			c-9.5,0-15.1,4.9-15.1,11v0.3c0,7.1,4.2,10.4,22.1,14.6c19.5,4.8,29.7,11.7,29.7,27.2v0.3c0,17.3-13.6,27.7-33.1,27.7
			C383,298.7,371.2,294.6,360.8,287z"/>
		<path class="st1" d="M437.3,212.3c0-4.6,3.6-8.1,8.1-8.1h1.7c3.6,0,5.9,1.9,7.5,4.4l28,44l28.2-44.1c1.7-2.7,4.1-4.2,7.5-4.2h1.7
			c4.6,0,8.1,3.7,8.1,8.1v77.6c0,4.6-3.6,8.1-8.1,8.1c-4.4,0-8.1-3.7-8.1-8.1v-55.7l-22.6,33.9c-1.7,2.7-3.9,4.2-7,4.2
			c-2.9,0-5.1-1.5-6.8-4.2L453,234.4v55.5c0,4.6-3.6,8-8.1,8c-4.6,0-8-3.4-8-8v-77.6H437.3z"/>
		<path class="st1" d="M536.3,286.8l34.5-76.7c1.9-4.1,5.1-6.6,9.8-6.6h0.8c4.6,0,7.8,2.5,9.7,6.6l34.5,76.7
			c0.7,1.2,0.8,2.4,0.8,3.4c0,4.4-3.4,7.8-7.6,7.8c-3.9,0-6.4-2.2-8-5.8l-7.5-17.3h-45.1l-7.8,17.8c-1.4,3.4-4.1,5.1-7.5,5.1
			c-4.2,0-7.5-3.4-7.5-7.5C535.3,289.2,535.6,288,536.3,286.8z M596.9,260.5L580.6,223l-16.3,37.5H596.9z"/>
		<path class="st1" d="M633.4,212.8c0-4.6,3.6-8.1,8.1-8.1h33.1c11.7,0,20.7,3.4,26.8,9.3c4.9,5.1,7.6,11.9,7.6,20v0.3
			c0,14.8-8.7,23.8-21,27.7l17.8,22.4c1.5,2,2.7,3.7,2.7,6.3c0,4.6-3.9,7.5-7.8,7.5c-3.7,0-6.1-1.7-8-4.2l-22.6-28.9h-20.5V290
			c0,4.6-3.6,8.1-8.1,8.1c-4.6,0-8.1-3.6-8.1-8.1L633.4,212.8L633.4,212.8z M673.4,250.7c11.7,0,19-6.1,19-15.4v-0.3
			c0-10-7.1-15.3-19.2-15.3h-23.8v31.1L673.4,250.7L673.4,250.7z"/>
		<path class="st1" d="M743.5,219.8h-22.6c-4.2,0-7.5-3.4-7.5-7.5c0-4.1,3.2-7.5,7.5-7.5h61.6c4.1,0,7.5,3.4,7.5,7.5
			c0,4.1-3.4,7.5-7.5,7.5H760v70.1c0,4.6-3.7,8.1-8.1,8.1c-4.6,0-8.1-3.6-8.1-8.1v-70.1H743.5z"/>
		<path class="st1" d="M390.5,408.7h-0.8c-4.4,0-7.3-2.7-9.2-7l-23.3-53.3c-0.3-1.2-0.8-2.5-0.8-3.9c0-3.9,3.6-7.6,8-7.6
			c4.4,0,6.6,2.5,8,5.8l18,46.3l18.3-46.7c1.2-2.7,3.4-5.6,7.5-5.6c4.4,0,7.8,3.4,7.8,7.6c0,1.5-0.5,3.1-0.8,3.9l-23.3,53.5
			C397.6,405.8,394.7,408.7,390.5,408.7z"/>
		<path class="st1" d="M428.7,361.3V361c0-26.3,19.7-47.9,47.9-47.9c14.3,0,23.8,4.2,31.7,10.5c1.7,1.4,3.2,3.6,3.2,6.4
			c0,4.6-3.6,8-8.1,8c-2.2,0-3.9-0.8-4.9-1.5c-6.3-5.1-13.2-8.3-22.1-8.3c-17.6,0-30.5,14.6-30.5,32.8v0.3
			c0,18.2,12.9,32.8,30.5,32.8c9.8,0,16.5-3.2,23.3-8.8c1.2-1,2.9-1.9,4.9-1.9c4.1,0,7.6,3.4,7.6,7.5c0,2.5-1.2,4.6-2.7,5.8
			c-8.7,7.6-18.7,12.4-33.6,12.4C448.9,408.8,428.7,387.8,428.7,361.3z"/>
		<path class="st1" d="M512,396.8l34.5-76.7c1.9-4.1,5.1-6.6,9.8-6.6h0.8c4.6,0,7.8,2.5,9.7,6.6l34.5,76.7c0.7,1.2,0.8,2.4,0.8,3.4
			c0,4.4-3.4,7.8-7.6,7.8c-3.9,0-6.4-2.2-8-5.8l-7.5-17.3h-45l-7.8,17.8c-1.4,3.4-4.1,5.1-7.5,5.1c-4.2,0-7.5-3.2-7.5-7.5
			C510.8,399.2,511.3,398,512,396.8z M572.6,370.5L556.3,333L540,370.5H572.6z"/>
		<path class="st1" d="M606.4,322.8c0-4.6,3.6-8.1,8.1-8.1h33.1c11.7,0,20.7,3.4,26.8,9.3c4.9,5.1,7.6,11.9,7.6,20v0.3
			c0,14.8-8.7,23.8-21,27.7l17.8,22.4c1.5,2,2.7,3.7,2.7,6.3c0,4.6-3.9,7.5-7.8,7.5c-3.7,0-6.1-1.7-8-4.2l-22.6-28.9h-20.5V400
			c0,4.6-3.6,8.1-8.1,8.1c-4.6,0-8.1-3.6-8.1-8.1L606.4,322.8L606.4,322.8z M646.4,360.6c11.7,0,19-6.1,19-15.4v-0.3
			c0-9.8-7.1-15.3-19.2-15.3h-23.8v31.1L646.4,360.6L646.4,360.6z"/>
		<path class="st1" d="M688.9,322.8c0-4.6,3.6-8.1,8.1-8.1h26.3c29.2,0,49.2,20,49.2,46v0.3c0,26.1-20.2,46.3-49.2,46.3H697
			c-4.6,0-8.1-3.6-8.1-8.1V322.8z M723.3,392.5c19.5,0,32.2-13.1,32.2-31.2V361c0-18.2-12.7-31.6-32.2-31.6H705v63h18.3V392.5z"/>
	</g>
</g>
</svg>
