<?xml version="1.0" encoding="utf-8"?>
<!-- Generator: Adobe Illustrator 25.2.3, SVG Export Plug-In . SVG Version: 6.00 Build 0)  -->
<svg version="1.1" id="Layer_1" xmlns="http://www.w3.org/2000/svg" xmlns:xlink="http://www.w3.org/1999/xlink" x="0px" y="0px"
	 viewBox="0 0 792 612" style="enable-background:new 0 0 792 612;" xml:space="preserve">
<style type="text/css">
	.st0{fill:#1AB680 !important;}
	.st1{fill:#FFFFFF !important;}
</style>
<g>
	<g>
		<path class="st0" d="M300.8,277.1c-6.6-12.6-23.1-17.4-35.5-8.9c-8.9,6.1-12,15-10.3,25.4c0.6,3.6-0.4,6.4-2.2,9.2
			c-5.8,9.1-13.4,16.6-21.9,23.2c-1.8,1.4-4.1,2.9-6.1,2.8c-5-0.2-9.6-1.6-12.4-6.6c-3.7-6.7-7.9-13.2-11.5-20
			c-5.1-9.6-9.2-19.6-12.1-30.1c-0.8-3-0.9-6.4-0.7-9.6c0.3-3.9,2-8.5,1.9-13.3c-0.1-4.8-1-7.5-2.7-11.8
			c-4.8-12.3-13.8-20.1-26.4-23.2c-11.1-2.8-21.7-0.6-31.1,6.3c-8.5,6.2-13.6,14.8-15.1,25.1c-1.4,9.7,0.7,18.9,6.4,26.9
			c4.9,6.9,11.3,11.7,19.5,14.3c3.1,1,6.1,2.6,8.7,4.5c7,5,12.8,11.5,18.3,18.1c6.9,8.4,13.4,17.2,17.6,27.3
			c1.3,3.2,2.8,6.5,1.4,10.2c-3.1,8.2-2.9,16.4,0.9,24.3c6.7,13.8,22,20.7,36.8,15.9c15.2-4.8,24.1-20.7,20.5-35.7
			c-0.4-1.7-0.2-4,0.7-5.5c2.9-5.3,6-10.5,9.4-15.4c4.2-6,8.6-11.8,14.6-16.2c1.8-1.3,3.7-1.9,5.9-1.4c5.3,1.1,10.4,0,15.2-2.5
			C302.5,304.2,307.3,289.4,300.8,277.1z"/>
		<path class="st0" d="M243.4,230.6c5.4,0,9.9,4.5,9.9,9.9v34.2c1.4-2.5,3.1-4.8,5.3-6.9v-36.6c0-6.2-5.1-11.3-11.3-11.3h-66.1
			c3.2,3,6,6.6,8.2,10.8H243.4z M203,224.1h16.9c0.6,0,1,0.5,1,1c0,0.6-0.5,1-1,1H203c-0.6,0-1-0.5-1-1
			C202,224.6,202.5,224.1,203,224.1z"/>
		<path class="st0" d="M253.3,383.4c0,5.4-4.5,9.9-9.9,9.9h-63.9c-5.4,0-9.9-4.5-9.9-9.9v-64.1c-1.8-2.4-3.6-4.6-5.3-6.8v85.8
			c0,6.2,5.1,11.3,11.3,11.3h71.6c6.2,0,11.3-5.1,11.3-11.3v-64.9c-1.7,2.5-3.5,5.2-5.3,8.4V383.4z M216.2,404.8h-9.5
			c-1.8,0-3.3-1.5-3.3-3.3s1.5-3.3,3.3-3.3h9.5c1.8,0,3.3,1.5,3.3,3.3S218,404.8,216.2,404.8z"/>
	</g>
	<g>
		<path class="st1" d="M325.7,300.1c-1.1-0.8-1.9-2.1-1.9-3.7c0-2.5,2-4.4,4.5-4.4c1.3,0,2.2,0.4,2.8,0.9c4.5,3.6,9.4,5.6,15.3,5.6
			c5.9,0,9.7-2.8,9.7-6.9v-0.2c0-3.9-2.2-6-12.3-8.3c-11.6-2.8-18.2-6.2-18.2-16.3v-0.2c0-9.4,7.8-15.8,18.6-15.8
			c6.9,0,12.4,1.8,17.3,5.1c1.1,0.6,2.1,2,2.1,3.8c0,2.5-2,4.4-4.5,4.4c-0.9,0-1.7-0.2-2.5-0.7c-4.2-2.7-8.3-4.1-12.6-4.1
			c-5.6,0-8.9,2.9-8.9,6.5v0.2c0,4.2,2.5,6.1,13,8.6c11.5,2.8,17.5,6.9,17.5,16v0.2c0,10.2-8,16.3-19.5,16.3
			C338.8,307,331.8,304.6,325.7,300.1z"/>
		<path class="st1" d="M370.8,256.1c0-2.7,2.1-4.8,4.8-4.8h1c2.1,0,3.5,1.1,4.4,2.6l16.5,25.9l16.6-26c1-1.6,2.4-2.5,4.4-2.5h1
			c2.7,0,4.8,2.2,4.8,4.8v45.7c0,2.7-2.1,4.8-4.8,4.8c-2.6,0-4.8-2.2-4.8-4.8v-32.8l-13.3,20c-1,1.6-2.3,2.5-4.1,2.5
			c-1.7,0-3-0.9-4-2.5l-13.3-19.9v32.7c0,2.7-2.1,4.7-4.8,4.7c-2.7,0-4.7-2-4.7-4.7V256.1z"/>
		<path class="st1" d="M429.1,300l20.3-45.2c1.1-2.4,3-3.9,5.8-3.9h0.5c2.7,0,4.6,1.5,5.7,3.9l20.3,45.2c0.4,0.7,0.5,1.4,0.5,2
			c0,2.6-2,4.6-4.5,4.6c-2.3,0-3.8-1.3-4.7-3.4l-4.4-10.2H442l-4.6,10.5c-0.8,2-2.4,3-4.4,3c-2.5,0-4.4-2-4.4-4.4
			C428.5,301.4,428.7,300.7,429.1,300z M464.8,284.5l-9.6-22.1l-9.6,22.1H464.8z"/>
		<path class="st1" d="M486.3,256.4c0-2.7,2.1-4.8,4.8-4.8h19.5c6.9,0,12.2,2,15.8,5.5c2.9,3,4.5,7,4.5,11.8v0.2
			c0,8.7-5.1,14-12.4,16.3l10.5,13.2c0.9,1.2,1.6,2.2,1.6,3.7c0,2.7-2.3,4.4-4.6,4.4c-2.2,0-3.6-1-4.7-2.5L508,287.2h-12.1v14.7
			c0,2.7-2.1,4.8-4.8,4.8c-2.7,0-4.8-2.1-4.8-4.8V256.4z M509.9,278.7c6.9,0,11.2-3.6,11.2-9.1v-0.2c0-5.9-4.2-9-11.3-9h-14v18.3
			H509.9z"/>
		<path class="st1" d="M551.2,260.5h-13.3c-2.5,0-4.4-2-4.4-4.4c0-2.4,1.9-4.4,4.4-4.4h36.3c2.4,0,4.4,2,4.4,4.4
			c0,2.4-2,4.4-4.4,4.4h-13.3v41.3c0,2.7-2.2,4.8-4.8,4.8c-2.7,0-4.8-2.1-4.8-4.8V260.5z"/>
		<path class="st1" d="M343.2,371.8h-0.5c-2.6,0-4.3-1.6-5.4-4.1l-13.7-31.4c-0.2-0.7-0.5-1.5-0.5-2.3c0-2.3,2.1-4.5,4.7-4.5
			c2.6,0,3.9,1.5,4.7,3.4l10.6,27.3l10.8-27.5c0.7-1.6,2-3.3,4.4-3.3c2.6,0,4.6,2,4.6,4.5c0,0.9-0.3,1.8-0.5,2.3l-13.7,31.5
			C347.4,370.1,345.7,371.8,343.2,371.8z"/>
		<path class="st1" d="M365.7,343.9v-0.2c0-15.5,11.6-28.2,28.2-28.2c8.4,0,14,2.5,18.7,6.2c1,0.8,1.9,2.1,1.9,3.8
			c0,2.7-2.1,4.7-4.8,4.7c-1.3,0-2.3-0.5-2.9-0.9c-3.7-3-7.8-4.9-13-4.9c-10.4,0-18,8.6-18,19.3v0.2c0,10.7,7.6,19.3,18,19.3
			c5.8,0,9.7-1.9,13.7-5.2c0.7-0.6,1.7-1.1,2.9-1.1c2.4,0,4.5,2,4.5,4.4c0,1.5-0.7,2.7-1.6,3.4c-5.1,4.5-11,7.3-19.8,7.3
			C377.6,371.9,365.7,359.5,365.7,343.9z"/>
		<path class="st1" d="M414.8,364.8l20.3-45.2c1.1-2.4,3-3.9,5.8-3.9h0.5c2.7,0,4.6,1.5,5.7,3.9l20.3,45.2c0.4,0.7,0.5,1.4,0.5,2
			c0,2.6-2,4.6-4.5,4.6c-2.3,0-3.8-1.3-4.7-3.4l-4.4-10.2h-26.5l-4.6,10.5c-0.8,2-2.4,3-4.4,3c-2.5,0-4.4-1.9-4.4-4.4
			C414.1,366.2,414.4,365.5,414.8,364.8z M450.5,349.3l-9.6-22.1l-9.6,22.1H450.5z"/>
		<path class="st1" d="M470.4,321.2c0-2.7,2.1-4.8,4.8-4.8h19.5c6.9,0,12.2,2,15.8,5.5c2.9,3,4.5,7,4.5,11.8v0.2
			c0,8.7-5.1,14-12.4,16.3l10.5,13.2c0.9,1.2,1.6,2.2,1.6,3.7c0,2.7-2.3,4.4-4.6,4.4c-2.2,0-3.6-1-4.7-2.5L492.1,352H480v14.7
			c0,2.7-2.1,4.8-4.8,4.8c-2.7,0-4.8-2.1-4.8-4.8V321.2z M494,343.5c6.9,0,11.2-3.6,11.2-9.1v-0.2c0-5.8-4.2-9-11.3-9h-14v18.3H494z
			"/>
		<path class="st1" d="M519,321.2c0-2.7,2.1-4.8,4.8-4.8h15.5c17.2,0,29,11.8,29,27.1v0.2c0,15.4-11.9,27.3-29,27.3h-15.5
			c-2.7,0-4.8-2.1-4.8-4.8V321.2z M539.3,362.3c11.5,0,19-7.7,19-18.4v-0.2c0-10.7-7.5-18.6-19-18.6h-10.8v37.1H539.3z"/>
	</g>
</g>
</svg>
