<?xml version="1.0" encoding="utf-8"?>
<!-- Generator: Adobe Illustrator 25.1.0, SVG Export Plug-In . SVG Version: 6.00 Build 0)  -->
<svg version="1.1" id="Layer_1" xmlns:svgjs="http://svgjs.com/svgjs"
	 xmlns="http://www.w3.org/2000/svg" xmlns:xlink="http://www.w3.org/1999/xlink" x="0px" y="0px" viewBox="0 0 512 512"
	 style="enable-background:new 0 0 512 512;" xml:space="preserve">
<style type="text/css">
	.st0{fill:#FFFFFF !important;}
</style>
<g>
	<g>
		<g>
			<path class="st0" d="M256,0C114.8,0,0,114.8,0,256c0,49.2,13.8,96.5,39.9,137.2L1.2,490c-2.4,6-1,12.7,3.6,17.3
				c3,3,7.1,4.7,11.3,4.7c2,0,4-0.4,6-1.2l96.8-38.8c40.7,26.1,88,39.9,137.2,39.9c141.2,0,256-114.8,256-256S397.2,0,256,0z
				 M256,480c-45.6,0-89.3-13.5-126.3-39.1c-2.7-1.9-5.9-2.8-9.1-2.8c-2,0-4,0.4-6,1.2l-70,28l28-70c2-5,1.3-10.7-1.7-15
				C45.5,345.3,32,301.6,32,256C32,132.5,132.5,32,256,32s224,100.5,224,224S379.5,480,256,480z"/>
		</g>
	</g>
</g>
<g>
	<g>
		<g>
			<path class="st0" d="M161.6,214.3l-57.8-33.4c-11.2,22.6-17.5,48-17.5,75.1c0,26.7,6.4,52.2,17.7,75l57.6-33.2
				c-5.7-12.8-8.9-26.9-8.9-41.7C152.7,241.2,155.9,227,161.6,214.3z"/>
		</g>
	</g>
	<g>
		<g>
			<path class="st0" d="M367.4,127.9c-29.8-26-68.8-41.7-111.5-41.6c-58.4,0-110.4,29.8-141,75.5l57.9,33.4
				c18.8-25.7,49.1-42.5,83.3-42.5c24.9,0,47.8,8.9,65.6,23.7c4.4,3.6,10.8,3.3,14.8-0.7l31.5-31.5
				C372.4,139.6,372.2,132.1,367.4,127.9z"/>
		</g>
	</g>
	<g>
		<g>
			<path class="st0" d="M424.6,236.4c-0.7-5.6-5.4-9.9-11-9.9l-139.1,0c-6.1,0-11.1,5-11.1,11.1v44.2c0,6.1,5,11.1,11.1,11.1h77.9
				c-7.2,18.7-19.7,34.7-35.5,46.4l33.1,57.3c33.3-22.6,58.7-56.7,69.8-97C425.9,277.7,427,256.5,424.6,236.4z"/>
		</g>
	</g>
	<g>
		<g>
			<path class="st0" d="M297.7,350.4c-12.8,5.7-26.9,8.9-41.7,8.9c-34.2,0-64.5-16.8-83.3-42.5l-57.6,33.3
				c30.3,45.2,81.8,75.6,140.9,75.6c26.7,0,52.1-6.5,74.9-18L297.7,350.4z"/>
		</g>
	</g>
</g>
</svg>
