<?xml version="1.0" encoding="utf-8"?>
<!-- Generator: Adobe Illustrator 25.1.0, SVG Export Plug-In . SVG Version: 6.00 Build 0)  -->
<svg version="1.1" id="Layer_1" xmlns="http://www.w3.org/2000/svg" xmlns:xlink="http://www.w3.org/1999/xlink" x="0px" y="0px"
	 viewBox="0 0 512 512" style="enable-background:new 0 0 512 512;" xml:space="preserve">
<style type="text/css">
.st0Unique{fill:#FFFFFF !important;}
</style>
<g>
	<path class="st0Unique" d="M484.5,213c-1.2-6.4-6.8-11-13.2-11H258.1c-7.5,0-13.5,6-13.5,13.5v81c0,7.5,6,13.5,13.5,13.5H367
		c-8.2,16.5-20,30.8-34.1,42c-1.2,0.6-2.3,1.4-3.3,2.4c-0.1,0.1-0.2,0.2-0.3,0.4c-20.3,14.9-45.2,23.7-71.1,23.7
		c-67.8,0-122.4-55.2-122.4-122.4s54.7-122.4,122.4-122.4c25.7,0,51,8.7,72.8,25.2c5.4,4.1,12.9,3.5,17.6-1.3l57.6-57.6
		c5.6-5.6,5.2-14.8-0.9-19.9c-41.9-35.2-94.2-54.6-147.2-54.6c-61.2,0-119,24-162.7,67.8C51.7,137,27.7,194.8,27.7,256
		s24,119,67.8,162.7c43.7,43.8,101.5,67.8,162.7,67.8s119-24,162.7-67.8c43.8-43.7,67.8-101.5,67.8-162.7
		C488.6,241.5,487.2,227.1,484.5,213z M258.1,52.5c42,0,83.4,13.8,118.3,39.1l-38.8,38.8c-24.4-15.7-51.7-23.9-79.5-23.9
		c-39.6,0-77.1,15.7-105.4,44c-10.6,10.7-19.5,22.6-26.5,35.5l-39.5-39.5C122.9,90.1,186.2,52.5,258.1,52.5z M73.2,171.2l41.9,41.9
		c-4.2,13.8-6.4,28.2-6.4,42.9c0,14.8,2.2,29.2,6.4,42.9l-41.9,41.9C61.3,315,54.7,286.2,54.7,256S61.3,197,73.2,171.2L73.2,171.2z
		 M86.7,365.5l39.5-39.5c6.9,12.9,15.8,24.8,26.5,35.5c28.4,28.4,65.8,44,105.4,44c28.5,0,55.8-8.1,79.8-23.6L377,421
		c-33.5,24.1-74.5,38.4-118.9,38.4C186.2,459.5,122.9,421.9,86.7,365.5z M397.9,403.7L359.2,365c18.7-17.6,32.9-40.1,40.6-64.5
		c1.3-4.1,0.5-8.6-2-12.1s-6.6-5.5-10.9-5.5H271.6v-54h188.1c1.2,8.9,1.8,18,1.8,27C461.6,314.1,437.1,366.5,397.9,403.7z"/>
</g>
</svg>
