<svg version="1.1" id="Layer_1" xmlns="http://www.w3.org/2000/svg" xmlns:xlink="http://www.w3.org/1999/xlink" x="0px" y="0px" style="enable-background:new 0 0 300 300;" xml:space="preserve" viewBox="62 59.48 176.2 181.32">
<style type="text/css">
	.st0{fill:#FFFFFF;}
</style>
<g id="Layer_4">
	<path class="st0" d="M215.1,113.8c-0.3-0.4-0.6-1-0.7-1.5l0,0c-1.6-18.5-4.3-30.8-4.3-30.8c-0.4-2.1-2.2-3.7-4.3-3.9L191,75.7   c-0.1,0-0.3,0-0.4,0c-1.7,0-3.1,1.4-3.1,3.1V84c0,0.1-0.1,0.2-0.2,0.2h-0.1l0,0c-8.9-8-18.8-15.7-29.9-22.5   c-2.1-1.4-4.6-2.2-7.3-2.2l0,0l0,0l0,0c-2.7,0-5.2,0.8-7.3,2.2c-51,31.5-79.1,82.7-80.2,85.5c-0.3,0.7-0.5,1.4-0.5,2.2   c0,2.4,1.6,4.3,3.8,4.9l14.7,2.8c2,0.5,3.5,2.2,3.7,4.3c0.1,2.6,2.9,60.6,6.4,75.6c0.6,2.2,2.5,3.8,4.9,3.8h0.1   c8.6-0.2,16.4-0.4,24.9-0.5l0,0l0,0h0.1c0.2,0,0.4,0,0.7,0c0.9,0,1.6-0.7,1.6-1.6l0,0c-0.3-5.1-1.1-16.6-1.7-28.8   c0-0.3,0-0.7-0.1-1l0,0c-0.1-1.1-0.6-2-1.5-2.5c-4.4-2.6-7.4-7.4-7.7-12.8c-0.8-20.3-1.2-43.8,0-62.2c0.1-1.5,1.3-2.8,2.9-2.8   s3,1.3,3,2.9c0,0.1,0,0.2,0,0.2c-0.7,12.3-0.8,26.7-0.5,41c0,1.9,1.6,3.5,3.6,3.4c1.9,0,3.5-1.6,3.4-3.6c-0.3-14.4-0.2-29,0.6-41.3   c0.1-1.5,1.3-2.8,2.9-2.8c1.6,0,3,1.3,3,2.9c0,0.1,0,0.2,0,0.2c-0.7,12.2-0.8,26.6-0.5,40.8l0,0c0,1.9,1.6,3.5,3.6,3.4   c1.9,0,3.5-1.6,3.4-3.5c-0.3-14.3-0.2-28.8,0.6-41.1c0.1-1.5,1.3-2.8,2.9-2.8c1.6,0,3,1.3,3,2.9c0,0.1,0,0.2,0,0.2   c-1.1,17.9-0.7,40.5,0,60.3v0.2c0,0.1,0,0.2,0,0.3l0,0c0,0.1,0,0.1,0,0.2c0,5.4-2.7,10.2-6.9,13.1c-0.7,0.5-1.2,1.3-1.3,2.3   c0,0-0.4,3,1,17.8c0.6,6.4,1.1,10.9,1.3,12.9c0.1,0.8,0.7,1.4,1.5,1.4c0.5,0,0.9,0,1.4,0l0,0c2.8,0,5.8,0,8.8,0h0.6h0.6   c3.8,0,7.5,0,11,0l8.3,0.1l0,0c0.8,0,1.4-0.6,1.6-1.4c1.9-17.7,2.4-27.6,2.4-27.6c0-0.9-0.7-1.6-1.6-1.7l-10.1-1.4   c-1.6-0.3-2.6-1.3-2.9-2.5c-0.2-0.7-0.1-1.6-0.1-1.6c4.1-59,23.5-78.8,23.5-78.8c0.6-0.6,0.9-0.8,0.9-0.8c0.5-0.4,1.1-0.6,1.8-0.6   c1.3,0,2.4,0.8,2.9,2c0,0,0.2,0.4,0.3,1.4c1.7,18.5,0.9,50.1-0.2,74.7c-0.9,20.9-1.9,37.3-1.9,37.3l0,0c0,0.7,0.5,1.2,1.2,1.2l0,0   c5.5,0.1,11,0.2,16.7,0.3h0.1c2.3,0,4.3-1.6,4.9-3.8c3.5-15,6.3-73,6.4-75.6c0.2-2.1,1.7-3.8,3.7-4.3l14.7-2.8   c2.2-0.6,3.8-2.5,3.8-4.9c0-0.8-0.2-1.5-0.5-2.2C237,145.7,229.3,131.5,215.1,113.8"/>
</g>
</svg>