<?xml version="1.0" encoding="utf-8"?>
<!-- Generator: Adobe Illustrator 25.4.1, SVG Export Plug-In . SVG Version: 6.00 Build 0)  -->
<svg version="1.1" id="Layer_1" xmlns="http://www.w3.org/2000/svg" xmlns:xlink="http://www.w3.org/1999/xlink" x="0px" y="0px"
	 viewBox="0 0 216 216" style="enable-background:new 0 0 216 216;" xml:space="preserve">
<style type="text/css">
	.st0{fill:#FFFFFF;}
</style>
<path class="st0" d="M214.71,73.1l-18.74,24.26c-0.9,1.17-2.27,1.81-3.68,1.81c-0.53,0-1.08-0.06-1.6-0.26L155.57,86.2
	c-2.13-0.78-3.39-2.93-3.03-5.16l2.19-13.53c-0.7-2.17-6.53-15.18-46.74-15.18c-39.84,0-45.94,12.73-46.75,15.23l2.22,13.48
	c0.37,2.23-0.92,4.38-3.03,5.16L25.32,98.91c-0.52,0.19-1.05,0.28-1.59,0.28c-1.42,0-2.82-0.65-3.74-1.83L1.26,73.1
	c-0.92-1.2-1.2-2.82-0.71-4.27C1.08,67.13,14.93,28.09,108,28.09c93.04,0,106.92,39.04,107.45,40.74
	C215.94,70.28,215.66,71.9,214.71,73.1z M190.83,134.07v29c0,13.7-11.15,24.85-24.85,24.85h-24.85c0-4.58-3.7-8.28-8.28-8.28H83.13
	c-4.58,0-8.28,3.71-8.28,8.28H50c-13.71,0-24.85-11.15-24.85-24.85v-29c0-5.45,3.41-10.97,8.29-13.4l25.73-12.88
	c0.51-0.28,1.57-1.34,1.87-1.88l1.4-2.81l11.45-22.9c1.17-2.33,3.07-4.3,5.29-5.74c2.44-1.58,5.27-2.54,8.12-2.54h41.42
	c2.85,0,5.7,0.97,8.13,2.56c2.22,1.45,4.11,3.4,5.27,5.73l11.44,22.88l1.42,2.85c0.28,0.51,1.34,1.57,1.88,1.87l25.7,12.86
	C187.42,123.1,190.83,128.61,190.83,134.07z M136.98,121.64c0-16.02-12.99-29-29-29s-29,12.98-29,29c0,16,12.99,29,29,29
	c3.95,0,7.7-0.81,11.12-2.23c-2.69-2.43-3.67-6.34-1.97-9.76c2.05-4.09,7.03-5.74,11.12-3.7l4.21,2.1
	C135.28,132.58,136.98,127.3,136.98,121.64z M107.99,109.21c-6.86,0-12.43,5.57-12.43,12.43s5.57,12.43,12.43,12.43
	s12.43-5.57,12.43-12.43S114.85,109.21,107.99,109.21z"/>
</svg>
