<?xml version="1.0" encoding="UTF-8"?>
<svg id="image" xmlns="http://www.w3.org/2000/svg" version="1.1" viewBox="0 0 500 500">
  <defs>
    <style>
      .cls-1 {
        fill: #fff;
        stroke-width: 0px;
      }
    </style>
  </defs>
  <path class="cls-1" d="M407.19,182.65h-19.89v-11.55h-28.89v11.55h-18.91v29.15h18.91v25.21h-29.15v29.15h29.15v62.76h28.89v-62.76h44.27c4.69.31,7.7,2.71,8.25,7.99v24.94c-1.09,3.81-4.17,5.21-8.59,4.99h-19.77l10.31,24.16h20.09c16.22,0,27.11-15.18,27.11-29.15v-34.97c0-16.22-15.18-27.11-29.15-27.11h-5.51v-26h-.02c-.4-13.74-11.19-28.36-27.1-28.36ZM406.73,237h-19.43v-25.21h14.32c3.38.17,5.06,1.58,5.11,4.2v21.01Z"/>
  <path class="cls-1" d="M168.84,276.13l-4.44-64.33h-28.4l4.44,64.33c2,16.39,8.54,28.2,17.19,37.93l15.27-32.81c-2.19-1.46-3.44-2.68-4.06-5.12Z"/>
  <path class="cls-1" d="M86.63,297.53c.02,4.92-2.05,6.92-5.12,7.48l-13.53.18,8.68,22.67h21.53c10.51,0,17.6-11.55,17.6-23.9v-130.51h-29.15v124.07Z"/>
  <path class="cls-1" d="M34.89,276.13c-.62,2.44-1.87,3.66-4.06,5.12l15.27,32.81c8.64-9.73,15.2-21.55,17.19-37.93l4.44-64.33h-28.4l-4.44,64.33Z"/>
  <polygon class="cls-1" points="301.43 210.48 320.34 210.48 320.34 182.65 253.64 182.65 253.64 210.48 272.55 210.48 272.55 300.29 245.89 300.29 232.63 327.86 328.74 327.86 328.74 300.29 301.43 300.29 301.43 210.48"/>
  <path class="cls-1" d="M469.18,196.67c0-7.83-6.35-14.18-14.18-14.18s-14.18,6.35-14.18,14.18c0,.34.01.69.04,1.02h-.04v13.16h14.18c7.83,0,14.18-6.35,14.18-14.18Z"/>
  <path class="cls-1" d="M228.15,264.57c-3.34-.49-5.21-2.48-3.53-5.98l21.27-46.54h-26.03c-2.85,0-3.16-2.52-2.46-3.78l16.67-37.18h-28.88l-24.15,53.83c-3.56,7.95.02,14.44,7.97,14.44h15.52l-15.54,34.01c-3.63,7.94-.1,14.44,7.84,14.44h35.67l9.98-23.24h-14.32Z"/>
  <path class="cls-1" d="M185.18,297.6l-11.84,26.96c.89,1.75,2.89,3.31,6.06,3.3h36.61l13.29-28.03h-34.14c-3.74,0-7.48-.72-9.97-2.23Z"/>
</svg>