<?xml version="1.0" encoding="utf-8"?>
<!-- Generator: Adobe Illustrator 25.2.3, SVG Export Plug-In . SVG Version: 6.00 Build 0)  -->
<svg version="1.1" id="Layer_1" xmlns="http://www.w3.org/2000/svg" xmlns:xlink="http://www.w3.org/1999/xlink" x="0px" y="0px"
	 viewBox="0 0 792 612" style="enable-background:new 0 0 792 612;" xml:space="preserve">
<style type="text/css">
  	#st0{fill:#1AB680 !important;}
</style>
<g>
	<path id="st0" d="M648.3,211.9c-18.3-34.6-63.4-47.9-97.6-24.4c-24.6,16.8-33,41.1-28.4,69.7c1.6,9.8-1.1,17.6-5.9,25.2
		c-15.9,25.1-36.8,45.6-60.2,63.7c-4.8,3.8-11.3,8.1-16.8,7.8c-13.6-0.6-26.5-4.5-34-18.1c-10.3-18.5-21.7-36.4-31.7-55.1
		c-14.1-26.3-25.4-53.8-33.3-82.6c-2.3-8.3-2.5-17.6-1.8-26.3c0.9-10.7,5.4-23.4,5.1-36.5s-2.7-20.5-7.3-32.4
		C323.2,69,298.5,47.6,263.9,39c-30.6-7.6-59.7-1.6-85.5,17.2c-23.5,17.1-37.5,40.5-41.5,69c-3.8,26.6,1.9,51.8,17.7,74
		c13.4,18.9,31.1,32.2,53.5,39.4c8.5,2.7,16.7,7.1,24,12.3c19.4,13.8,35.2,31.5,50.2,49.8c19.1,23.1,36.8,47.2,48.5,75
		c3.7,8.8,7.6,18,3.8,28.1c-8.6,22.5-8.1,45.1,2.4,66.7c18.5,37.8,60.4,56.8,101.1,43.8c41.7-13.3,66.2-56.9,56.3-98
		c-1.1-4.7-0.5-10.9,1.8-15c8-14.5,16.4-28.8,25.9-42.4c11.5-16.4,23.6-32.5,40-44.6c5-3.7,10.1-5.1,16.3-3.8
		c14.7,3,28.7,0,41.6-6.8C652.8,286.3,666.1,245.5,648.3,211.9z"/>
	<path  id="st0" d="M490.5,84c14.9,0,27.2,12.2,27.2,27.2v94.1c3.7-6.9,8.7-13.3,14.7-19.1V85.7c0-17.1-14-31.2-31.2-31.2H319.7
		c8.9,8.4,16.4,18.2,22.5,29.6H490.5z M379.6,66.2h46.3c1.6,0,2.8,1.3,2.8,2.8c0,1.6-1.3,2.8-2.8,2.8h-46.3c-1.6,0-2.8-1.3-2.8-2.8
		C376.7,67.4,378,66.2,379.6,66.2z"/>
	<path  id="st0" d="M517.7,504c0,14.9-12.2,27.2-27.2,27.2H315c-14.9,0-27.2-12.2-27.2-27.2V327.9c-4.9-6.5-9.9-12.8-14.7-18.6
		v235.8c0,17.1,14,31.2,31.2,31.2h196.9c17.1,0,31.2-14,31.2-31.2V366.8c-4.8,6.9-9.6,14.3-14.7,23V504z M415.7,562.6h-26
		c-5,0-9-4.1-9-9s4.1-9,9-9h26c5,0,9,4.1,9,9S420.7,562.6,415.7,562.6z"/>
</g>
</svg>
