<?xml version="1.0" encoding="utf-8"?>
<!-- Generator: Adobe Illustrator 25.1.0, SVG Export Plug-In . SVG Version: 6.00 Build 0)  -->
<svg version="1.1" id="Layer_1" xmlns="http://www.w3.org/2000/svg" xmlns:xlink="http://www.w3.org/1999/xlink" x="0px" y="0px"
	 viewBox="0 0 512 512" style="enable-background:new 0 0 512 512;" xml:space="preserve">
<style type="text/css">
	.st0Unique{fill:#FFFFFF !important;}
</style>
<g>
	<path class="st0Unique" d="M257.5,23.1c-127.3,0-234.9,97.6-234.9,221.1c0,66.2,31.9,126.7,83.5,167.9v67c0,4.8,2.5,9.3,6.6,11.7
		c4,2.5,9.2,2.8,13.5,0.5l68.4-35c20.5,5.3,41.7,8.1,63,8.1c129.6,0,234.9-98.8,234.9-220.2C492.4,120.6,384.7,23.1,257.5,23.1z
		 M257.5,436.9c-20.7,0-41.2-2.8-60.7-8.4c-3.4-1-7-0.6-10.1,1l-53,27.2v-51.2c0-4.3-2-8.4-5.5-11c-49.5-37.3-78-92-78-150.2
		c0-106.7,93-193.6,207.4-193.6s207.4,86.9,207.4,193.6C464.8,350.4,371.8,436.9,257.5,436.9z"/>
	<path class="st0Unique" d="M389,163.1l-101.2,50.6l-48.1-48.1c-2.8-2.8-6.6-4.2-10.5-4c-3.9,0.2-7.5,2.1-10,5.1L109.1,304.4
		c-4,5-4,12.2,0,17.2c4,5,11.1,6.5,16.9,3.7l101.2-50.6l48.1,48.1c2.8,2.8,6.6,4.2,10.5,4c3.9-0.2,7.5-2.1,10-5.1l110.1-137.6
		c4-5,4-12.2-0.1-17.2C401.7,161.7,394.7,160.1,389,163.1z M283.9,292.4l-44.2-44.1c-4.2-4.2-10.6-5.2-15.9-2.6l-54,27l61.4-76.7
		l44.2,44.1c4.2,4.2,10.6,5.2,15.9,2.6l54-27.1L283.9,292.4z"/>
</g>
</svg>
