<?xml version="1.0" encoding="utf-8"?>
<!-- Generator: Adobe Illustrator 25.4.1, SVG Export Plug-In . SVG Version: 6.00 Build 0)  -->
<svg version="1.1" id="Layer_1" xmlns="http://www.w3.org/2000/svg" xmlns:xlink="http://www.w3.org/1999/xlink" x="0px" y="0px"
	 viewBox="0 0 216 216" style="enable-background:new 0 0 216 216;" xml:space="preserve">
<style type="text/css">
	.st0{fill:#FFFFFF;}
</style>
<path class="st0" d="M103.57,180.73h8.87v8.87h-8.87V180.73z M71.77,113.72c1.07,0.62,2.25,0.94,3.41,0.94
	c2.25,0,4.47-1.14,5.72-3.24l35.48-59.43c1.87-3.16,0.85-7.24-2.3-9.12c-3.17-1.9-7.24-0.86-9.13,2.3L69.47,104.6
	C67.6,107.75,68.62,111.83,71.77,113.72z M170.09,28.16v159.67c0,14.68-11.94,26.61-26.61,26.61H72.52
	c-14.68,0-26.61-11.94-26.61-26.61V28.16c0-14.67,11.94-26.61,26.61-26.61h70.96C158.16,1.55,170.09,13.49,170.09,28.16z
	 M94.69,19.29c0,2.45,1.99,4.44,4.44,4.44h17.74c2.44,0,4.43-1.98,4.43-4.44s-1.99-4.43-4.43-4.43H99.13
	C96.69,14.86,94.69,16.84,94.69,19.29z M121.31,176.3c0-2.44-1.99-4.43-4.43-4.43H99.13c-2.44,0-4.44,1.99-4.44,4.43v17.74
	c0,2.44,1.99,4.43,4.44,4.43h17.74c2.44,0,4.43-1.99,4.43-4.43V176.3H121.31z M152.35,37.04h-88.7v124.19h88.71L152.35,37.04
	L152.35,37.04z M71.84,75.61c1.06,0.61,2.2,0.9,3.35,0.9c2.29,0,4.5-1.19,5.75-3.3l12.41-21.29c1.85-3.18,0.78-7.25-2.41-9.11
	c-3.19-1.84-7.24-0.77-9.09,2.4l-12.42,21.3C67.58,69.69,68.66,73.76,71.84,75.61z"/>
</svg>
