<?xml version="1.0" encoding="utf-8"?>
<!-- Generator: Adobe Illustrator 25.4.1, SVG Export Plug-In . SVG Version: 6.00 Build 0)  -->
<svg version="1.1" id="Layer_1" xmlns="http://www.w3.org/2000/svg" xmlns:xlink="http://www.w3.org/1999/xlink" x="0px" y="0px"
	 viewBox="0 0 216 216" style="enable-background:new 0 0 216 216;" xml:space="preserve">
<style type="text/css">
	.st0{fill:#FFFFFF;}
</style>
<path class="st0" d="M168.65,25.77h-59.2c-0.14,2.01-0.35,4.01-1,5.74l-12.62,34.9c-3.03,8.3-10.99,13.88-19.81,13.88l-2.09-0.06
	l-1.31-0.21l-5.28-0.86c-1.75,3.92-4.14,12.3-4.14,28.84c0,16.55,2.39,24.93,4.14,28.85l5.21-0.87l2.1-0.29h1.37
	c8.79,0,16.74,5.56,19.83,13.93l12.63,34.93c0.66,1.86,0.93,3.77,1.06,5.67h59.12c13.6,0,24.67-11.07,24.67-24.67V50.44
	C193.32,36.83,182.26,25.77,168.65,25.77z M119.64,58.67h49.33c4.54,0,8.22,3.68,8.22,8.22s-3.68,8.22-8.22,8.22h-49.33
	c-4.54,0-8.22-3.68-8.22-8.22S115.1,58.67,119.64,58.67z M125.44,163.1c-1.65,1.65-3.79,2.47-5.76,2.47c-2.14,0-4.28-0.82-5.76-2.31
	c-1.65-1.64-2.47-3.77-2.47-5.91s0.82-4.27,2.3-5.77c3.29-3.28,8.55-3.12,11.68,0c1.48,1.49,2.46,3.63,2.46,5.77
	C127.9,159.48,127.08,161.62,125.44,163.1z M125.44,138.43c-1.49,1.64-3.62,2.47-5.76,2.47c-2.31,0-4.28-0.84-5.93-2.47
	c-1.48-1.48-2.3-3.45-2.3-5.75c0-2.15,0.82-4.27,2.3-5.75c3.13-3.13,8.55-3.13,11.68,0c1.48,1.48,2.46,3.6,2.46,5.75
	C127.9,134.81,126.92,136.95,125.44,138.43z M125.44,113.76c-1.49,1.64-3.62,2.47-5.76,2.47s-4.28-0.84-5.93-2.47
	c-1.48-1.48-2.3-3.61-2.3-5.75s0.82-4.28,2.3-5.76c3.13-3.12,8.55-3.12,11.68,0c1.48,1.48,2.46,3.61,2.46,5.76
	C127.9,110.14,126.92,112.28,125.44,113.76z M150.11,163.1c-1.49,1.65-3.62,2.47-5.76,2.47c-2.15,0-4.28-0.82-5.76-2.31
	c-1.65-1.64-2.46-3.77-2.46-5.91s0.82-4.27,2.3-5.77c3.13-3.12,8.55-3.12,11.69,0c1.48,1.49,2.46,3.63,2.46,5.77
	C152.57,159.48,151.75,161.62,150.11,163.1z M150.27,138.43c-1.65,1.64-3.78,2.47-5.92,2.47c-2.31,0-4.28-0.84-5.93-2.47
	c-1.48-1.48-2.3-3.61-2.3-5.75c0-2.15,0.82-4.11,2.3-5.75c3.13-3.31,8.55-3.13,11.69,0c1.64,1.64,2.46,3.6,2.46,5.75
	C152.57,134.81,151.75,136.95,150.27,138.43z M150.27,113.76c-1.65,1.64-3.78,2.47-5.92,2.47c-2.31,0-4.44-0.84-5.93-2.47
	c-1.48-1.48-2.3-3.61-2.3-5.75s0.82-4.28,2.46-5.76c2.63-2.96,8.38-3.12,11.52,0c1.64,1.48,2.46,3.61,2.46,5.76
	C152.57,110.14,151.75,112.28,150.27,113.76z M174.78,163.1c-1.65,1.65-3.62,2.47-5.76,2.47s-4.28-0.82-5.76-2.31
	c-1.65-1.64-2.46-3.77-2.46-5.91s0.82-4.27,2.46-5.93c2.96-2.95,8.38-2.95,11.52,0.16c1.48,1.49,2.46,3.63,2.46,5.77
	C177.24,159.48,176.42,161.62,174.78,163.1z M174.78,138.43c-1.49,1.64-3.62,2.47-5.76,2.47c-2.31,0-4.28-0.84-5.93-2.47
	c-1.48-1.48-2.3-3.45-2.3-5.75c0-2.15,0.82-4.27,2.3-5.75c3.13-3.13,8.55-3.13,11.69,0c1.48,1.48,2.46,3.6,2.46,5.75
	C177.24,134.81,176.26,136.95,174.78,138.43z M174.78,113.76c-1.49,1.64-3.62,2.47-5.76,2.47s-4.28-0.84-5.93-2.47
	c-1.48-1.48-2.3-3.61-2.3-5.75s0.82-4.28,2.3-5.76c3.29-3.29,8.88-3.12,11.69,0c1.48,1.48,2.46,3.61,2.46,5.76
	C177.24,110.14,176.26,112.28,174.78,113.76z M92.98,190.06c0.67,1.9,0.06,4.03-1.53,5.28l-24.09,18.6
	c-0.8,0.61-1.79,0.95-2.79,0.95c-0.49,0-0.98-0.08-1.45-0.24c-1.69-0.53-40.44-14.28-40.44-106.65
	c0-92.35,38.75-106.13,40.44-106.66c0.47-0.16,0.96-0.23,1.45-0.23c1,0,1.99,0.33,2.79,0.96l24.09,18.6c1.16,0.89,1.8,2.26,1.8,3.65
	c0,0.52-0.08,1.08-0.27,1.59L80.37,60.77c-0.68,1.87-2.43,3.07-4.36,3.07c-0.26,0-0.51-0.03-0.76-0.06L61.82,61.6
	c-2.15,0.7-15.07,6.48-15.07,46.4c0,39.55,12.64,45.61,15.11,46.41l13.38-2.2c0.26-0.05,0.51-0.06,0.76-0.06
	c1.93,0,3.68,1.22,4.36,3.07L92.98,190.06z"/>
</svg>
