<svg version="1.1" id="Layer_1" xmlns="http://www.w3.org/2000/svg" xmlns:xlink="http://www.w3.org/1999/xlink" x="0px" y="0px" style="enable-background:new 0 0 300 300;" xml:space="preserve" viewBox="32.68 66.15 234.53 167.85">
<g id="Layer_3">
	<g>
		<path d="M262.4,131.6c-9-14.1-27.7-18.3-41.8-9.3c-2.6,1.6-4.8,3.6-6.8,5.9l-10.8-8.1c2.7-1.1,8.4-3.6,8.8-5.1    c0.2-0.9-2.7-1.5-7.1-1.8L225,94.7c0.1-0.1,0.2-0.3,0.1-0.5l-5.2-9.7c-0.1-0.2-0.3-0.3-0.5-0.2c0,0-0.1,0-0.1,0.1l-21.1,19.3    c-6.3,0-17.6,0.8-20.8-1.2c-5.2-3.3-5.8-8-7.7-9.8s-4.1-1.9-4.5-3.4c0-0.1,0-0.2,0.1-0.2l0,0c1-0.3,6.5-1.8,7.8-5.7    c1.3-3.9-1.3-9.1-1.7-9.9c0-0.1,0-0.1,0-0.2l5.9-5.2c0.1-0.1,0.1-0.2,0-0.2h-0.1l-8.7,1.1h-0.1c-0.5-0.6-3.9-4.7-11-1.8    c-8.2,3.3-6.7,10.4-6.7,10.4c1.1,7.4,3.6,8.8,7.8,11.2c0.1,0,0.2,0.2,0,0.3c-2.7,2.2-29.7,24.4-54.6,33c-0.3,0.1-0.4,0.4-0.3,0.6    c0,0.1,0.1,0.2,0.3,0.3c7.2,3.1,28.9,1.4,35.2-2.3c0.1-0.1,0.2,0,0.2,0v0.1c-0.7,2.7-4.5,18.3,1.4,23.2l0.3,0.2l-8,5.7    c-0.9,0.7-1.1,1.9-0.5,2.9c0.4,0.6,1.2,1,1.9,0.9l4.1-0.4c2.7-0.3,5.2-1.5,7.1-3.3l1.4-1.4l11.7,8.7l-1.5,12.3    c-16.7-0.9-31,11.9-31.9,28.6s11.9,31,28.6,31.9s31-11.9,31.9-28.6c0.3-5.6-0.9-11.1-3.6-16l3-1.9c3,2.7,7.6,2.4,10.3-0.6    c1.6-1.8,2.2-4.4,1.6-6.8l12.3-3.6c1-0.3,1.7-1.3,1.4-2.4l-0.1-0.4c-0.2-0.9-1-1.6-2-1.6h-10.5c-0.1,0-0.1,0-0.1-0.1L195,161    l6.3-36.8l10.1,7.5c-9,14.1-4.9,32.8,9.2,41.8c14.1,9,32.8,4.9,41.8-9.2C268.8,154.4,268.8,141.6,262.4,131.6L262.4,131.6z     M178.4,109.8l14.3-0.2l1.9,3.5c-3.3,0.1-6.8,0.4-10.1,0.8c-2.4,0.3-5.3-2.8-6.2-3.8c-0.1-0.1,0-0.2,0-0.3    C178.3,109.9,178.4,109.8,178.4,109.8L178.4,109.8z M156.8,131.2c1.2-2,8.1-13.5,9-17.5c0-0.1,0.1-0.1,0.2-0.1h0.1    c4.6,5.4,14.4,8.5,15.1,8.7h0.1l12.5-3.9l2.8,2.1l-13.1,12c-1.4-1.3-3.2-2-5.1-2.2c-7.5-1-19.3,0.7-21.4,1.1    c-0.1,0-0.1-0.1-0.1-0.2L156.8,131.2L156.8,131.2z M189.1,170.6c-0.8,0.1-1.7,0.3-2.4,0.7l-8.9-6.8c0-0.1,0-0.1,0-0.2l4.5-9.3    c0-0.1,0.1-0.1,0.2-0.1c0,0,0.1,0,0.1,0.1l7.4,11.5L189.1,170.6z M170.1,160.6L164,156l11.7-10.8L170.1,160.6z M170.1,144.7    l-9.5,8.7l-9.6-7.1C157.4,146.3,163.9,145.8,170.1,144.7L170.1,144.7z M162.5,159.9l6.3,4.7l-0.8,2.1c-0.5,1.5,0.2,3.1,1.7,3.6    l0,0l13.1,4.8l0.4,0.3c-0.6,1.5-0.6,3.1-0.2,4.6l-2.9,1.9c-4.5-6.2-11.2-10.5-18.8-11.9L162.5,159.9z M160.5,176.1    c5.7,1.2,10.8,4.4,14.3,9L158,195.9L160.5,176.1z M168.5,219.9c-11.2,7.2-26.1,3.9-33.2-7.3c-7.2-11.2-3.9-26.1,7.3-33.2    c4.1-2.6,9-4,13.8-3.8l-3,24c-0.1,0.8,0.3,1.5,0.9,2c0.7,0.4,1.5,0.4,2.2,0l20.4-13C182.6,199.7,179,213.3,168.5,219.9    L168.5,219.9z M186.4,141.3C186.4,141.2,186.4,141.2,186.4,141.3c0.1-1.8-0.1-3.5-0.6-5.2l11.1-10.1l-4.8,28.1L186.4,141.3z     M249.8,168.2c-11.2,7.2-26,3.9-33.2-7.3c-5-7.8-5.1-17.7-0.2-25.6l19.1,14.2c0.7,0.5,1.6,0.5,2.3,0.1c0.2-0.1,0.4-0.3,0.5-0.5    c0.7-0.9,0.5-2.2-0.4-2.9l0,0L218.8,132c1.5-1.7,3.2-3.1,5.1-4.3c11-7.4,26-4.5,33.4,6.6c7.4,11,4.5,26-6.6,33.4    C250.4,167.9,250.1,168.1,249.8,168.2L249.8,168.2z"/>
		<path d="M188.6,98.6l7,0.4c0.3,0,0.7-0.1,0.9-0.3l17.4-16.3c0.1-0.1,0.1-0.3,0-0.4s-0.1-0.1-0.2-0.1l-6.8-0.4    c-0.5,0-1,0.1-1.4,0.5l-17.1,16c-0.1,0.1-0.1,0.4,0,0.5C188.4,98.6,188.5,98.6,188.6,98.6L188.6,98.6z M96.5,200.9l-11.1,6.8    l-10.6-8.6l3.3,13.2l-10.8,7.2l13.2,1.4l3.9,13.1l4.8-12.3l13.2,0.9l-10.2-9L96.5,200.9z M109.5,153.4l-11.1,6.8l-10.6-8.6    l3.3,13.2L80.3,172l13.2,1.4l3.9,13.1l4.8-12.3l13.2,0.9l-10.2-9L109.5,153.4L109.5,153.4z M57.6,178.9l4.3-12.6l-11.1,6.8    l-10.6-8.6l3.3,13.2l-10.8,7.2l13.2,1.4l3.9,13.1l4.8-12.3l13.2,0.9L57.6,178.9L57.6,178.9z"/>
	</g>
</g>
<g id="Layer_4">
</g>
</svg>