<?xml version="1.0" encoding="utf-8"?>
<!-- Generator: Adobe Illustrator 27.1.1, SVG Export Plug-In . SVG Version: 6.00 Build 0)  -->
<svg version="1.1" id="Layer_1" xmlns="http://www.w3.org/2000/svg" xmlns:xlink="http://www.w3.org/1999/xlink" x="0px" y="0px"
	 viewBox="0 0 500 500" style="enable-background:new 0 0 500 500;" xml:space="preserve">
<style type="text/css">
	.st0{fill:#FFFFFF;}
</style>
<g>
	<path class="st0" d="M483.5,222.5c-25.2,22.1-47.6,23.5-74.5,3.7c-12.4-9.1-23.4-19.9-35.8-29c-9.6-7-19.7-13.9-30.7-18.3
		c-18.9-7.5-38.1-4.9-55.4,5.6c-11.7,7.1-22.4,16-33.3,24.5c-1.5,1.2-2.7,1.8-3.8,1.8c-1.2,0-2.3-0.6-3.8-1.8
		c-10.9-8.5-21.6-17.4-33.3-24.5c-17.3-10.5-36.5-13.1-55.4-5.6c-10.9,4.3-21.1,11.3-30.7,18.3c-12.4,9-23.5,19.9-35.8,29
		c-26.9,19.8-49.3,18.4-74.5-3.7c-2.1-1.8-4.2-3.6-6.2-5.4c3.8,20.8,11.9,39.4,23.8,56.3c15.3,21.6,35.3,37.1,60.4,45.5
		c58.7,19.8,132.9-7.8,155.6-60c22.7,52.2,96.9,79.9,155.6,60c25.1-8.5,45.1-24,60.4-45.5c12-16.9,20.1-35.6,23.8-56.3
		C487.7,218.8,485.6,220.6,483.5,222.5"/>
</g>
</svg>
