<?xml version="1.0" encoding="utf-8"?>
<!-- Generator: Adobe Illustrator 25.4.1, SVG Export Plug-In . SVG Version: 6.00 Build 0)  -->
<svg version="1.1" id="Layer_1" xmlns="http://www.w3.org/2000/svg" xmlns:xlink="http://www.w3.org/1999/xlink" x="0px" y="0px"
	 viewBox="0 0 216 216" style="enable-background:new 0 0 216 216;" xml:space="preserve">
<style type="text/css">
	.st0{fill:#FFFFFF;}
</style>
<path class="st0" d="M210.07,103.97c-2.43-6.72-7.34-11.73-13.83-14.1c-13.63-4.98-40.51-7.72-55.32-8.91
	c-2.07-0.17-4.01-1.29-5.19-3c-0.61-0.88-1.54-2.71-0.88-4.97c0.08-0.29,0.19-0.55,0.3-0.75c2.22-4.01,6.49-12.02,8.42-16.02
	c3.45-7.18,4.87-15.13,4.1-22.98c-0.68-6.98-3.12-13.79-6.87-19.17c-2.46-3.54-5.46-6.43-8.68-8.36c-3.68-2.21-7.67-3.19-11.54-2.83
	c-4.94,0.46-9.17,3.23-12.25,8.02c-2.82,4.38-3.96,9.31-4.43,12.68c-1.79,12.99-7.12,25.36-14.24,33.09
	C79.13,68.1,71.54,78.27,63.45,91.78c-1.56,2.61-5.59,4.85-11.19,6.35c-1.93-7.04-8.39-12.23-16.04-12.23H20.97
	c-9.17,0-16.63,7.46-16.63,16.63v85.19c0,9.17,7.46,16.63,16.63,16.63h15.25c7.51,0,13.88-5.01,15.93-11.86
	c14.19,0.84,31.15,5.19,49.01,9.77c10.34,2.66,21.04,5.4,31.32,7.45c12.04,2.4,20.79,3.48,28.25,3.48c0.21,0,0.43,0,0.64,0
	c9.76-0.08,17.24-2.16,22.88-6.36c3.44-2.57,6.19-5.94,8.15-10.03c1.63-3.4,2.74-7.24,3.36-11.68c3.8-3.53,6.79-7.96,8.55-12.69
	c1.91-5.14,2.34-10.44,1.28-15.49c2.84-4.49,4.86-9.74,5.66-14.79c0.97-6.14,0.16-11.7-2.33-16.31
	C212.11,118.6,212.54,110.81,210.07,103.97z M36.22,192.11H20.97c-2.42,0-4.38-1.97-4.38-4.38v-85.19c0-2.42,1.97-4.38,4.38-4.38
	h15.25c2.42,0,4.38,1.97,4.38,4.38v2.8c0,0.07,0,0.13,0,0.2v82.19C40.61,190.14,38.64,192.11,36.22,192.11z M176.94,197.01
	c-8.48,6.31-26.02,3.89-42.06,0.7c-9.95-1.98-20.49-4.69-30.67-7.3c-18.45-4.74-35.98-9.24-51.36-10.14v-69.68
	c8.04-1.77,16.81-5.34,21.11-12.52c7.62-12.74,14.78-22.34,24.71-33.12c4.66-5.06,8.58-11.38,11.68-18.81
	c2.74-6.57,4.7-13.8,5.68-20.9c0.77-5.57,3.21-9.95,5.68-10.17c2.83-0.26,6.29,2.03,9.04,5.98c4.4,6.33,7.5,17.95,1.78,29.86
	c-1.76,3.66-5.9,11.43-8.09,15.39c-0.56,1-1.01,2.11-1.35,3.29c-1.5,5.2-0.56,10.79,2.58,15.33c3.3,4.77,8.5,7.78,14.28,8.24
	c11.42,0.92,39.37,3.55,52.09,8.2c3.02,1.11,5.34,3.51,6.52,6.77c1.25,3.45,1.13,7.43-0.26,11.35l-19.08-3.09
	c-3.34-0.54-6.48,1.73-7.02,5.07c-0.54,3.34,1.73,6.48,5.07,7.02l20.99,3.4c2.28,4.64,0.9,11.61-2.19,17.16l-18.31-3.44
	c-3.32-0.62-6.52,1.56-7.15,4.89c-0.62,3.32,1.56,6.52,4.89,7.15l18.36,3.45c0.49,5.48-2.21,10.79-5.74,14.41l-14.88-2.72
	c-3.33-0.61-6.51,1.6-7.12,4.92c-0.61,3.33,1.6,6.51,4.92,7.12l11.93,2.18C181.82,191.55,179.83,194.86,176.94,197.01z"/>
</svg>
