<?xml version="1.0" encoding="utf-8"?>
<!-- Generator: Adobe Illustrator 27.9.0, SVG Export Plug-In . SVG Version: 6.00 Build 0)  -->
<svg version="1.1" id="image" xmlns="http://www.w3.org/2000/svg" xmlns:xlink="http://www.w3.org/1999/xlink" x="0px" y="0px"
	 viewBox="0 0 500 500" style="enable-background:new 0 0 500 500;" xml:space="preserve">
<style type="text/css">
	.st0{fill:#262F9D;}
	.st1{fill:#E44633;}
</style>
<g>
	<path class="st0" d="M148.3,285.1c-21.8-8.5-76.2-17.5-66.7-43.8s46.4-18.6,57.7-14.3c5,1.9,12.4,5.4,19.1,8.8
		c8.9,4.4,19.6,1.6,25.2-6.6l17-24.8c-38.8-38.1-101.1-39.1-138.2-25.6s-52.6,43.3-52.2,76.4c0.4,33.1,15.7,49,35.1,60.9
		s53.4,20.5,67.1,26c11.2,4.5,25.8,14.9,18.7,32.3c-7.1,17.3-33.8,20.2-52,14.3c-10.8-3.5-22.5-9.9-31.5-15.5
		c-8.9-5.5-20.6-3.1-26.7,5.5L0,408.6c56.7,42.6,116.6,31.1,137.4,25.7c20.8-5.4,59.9-22.8,64.5-73.6
		C206.5,309.9,170,293.5,148.3,285.1z"/>
	<path class="st1" d="M448.4,346.1c-8.3-16.1-25.8-47.3-41.1-57.8c34.1-28.2,64.3-77.2,90.3-113.4h-80.8c0,0-6,2.4-37.5,50
		c-15.5,23.5-26.3,37.5-33.3,45.6h-24.4V58.7h-77.8v376.7h77.8V320.2h28.2c4.7,4.4,12.8,15,25.5,39.9c23.7,46.5,35.8,70.4,46.5,75.4
		c18.8,0,78.2,0,78.2,0S456.7,362.2,448.4,346.1z"/>
</g>
</svg>
