<?xml version="1.0" encoding="utf-8"?>
<!-- Generator: Adobe Illustrator 25.1.0, SVG Export Plug-In . SVG Version: 6.00 Build 0)  -->
<svg version="1.1" id="Layer_1" xmlns="http://www.w3.org/2000/svg" xmlns:xlink="http://www.w3.org/1999/xlink" x="0px" y="0px"
	 viewBox="0 0 512 512" style="enable-background:new 0 0 512 512;" xml:space="preserve">
<style type="text/css">
	.st0Unique{fill:#FFFFFF !important;}
</style>
<g>
	<path class="st0Unique" d="M486.1,164.3c-0.2-24.4-16.9-39.5-41.3-39.9c-15-0.3-30.1-0.9-45,0.2c-11.4,0.8-14.2-3.6-13.4-13.9
		c0.7-9.4,0.4-18.9-0.1-28.3c-1-21.2-16.9-37.6-38.1-37.7c-94-0.4-188-0.4-282.1,0c-21.8,0.1-38.2,16.9-38.3,38.7
		c-0.4,60.5-0.3,121.1,0.1,181.6c0.1,17.8,11.6,33.2,28.7,36.6c9.9,2,10.8,6.6,10.7,14.8c-0.4,21.2-0.2,42.5-0.2,66.1
		c5.2-3.4,8.3-5.3,11.3-7.4c28.5-21.3,56.7-43,85.8-63.7c6.5-4.6,15.4-7.7,23.2-7.8c51.5-0.7,103.1-0.2,154.6-0.4
		c29.5-0.1,44.3-15,44.5-44.4c0.2-27.9-0.2-55.8,0.4-83.7c0.1-3.8,3.9-10.6,6.3-10.8c17-0.9,34.1-0.5,52-0.5c0,60.3,0,119.2,0,179.8
		c-12.9,0-25.1,0-38.8,0c0,13.2,0,24.9,0,39.3c-16.3-12.2-30-22.9-44.4-32.8c-4.9-3.4-11.5-6.2-17.4-6.3
		c-49.8-0.5-99.6-0.4-149.4-0.2c-3.8,0-8.3,0-11.1,2c-13.2,9.3-25.9,19.4-38.7,29.1c0.1,1.4,0.2,2.8,0.3,4.1
		c8.9,1.4,17.7,4.1,26.6,4.1c51.5,0.4,103.1-0.1,154.6,0.5c7.8,0.1,16.8,3.3,23.2,7.9c24.2,17,47.5,35.3,71.3,53.1
		c7.4,5.6,14.9,10.9,24.7,18.1c0-7,0-11.1,0-15.2c0-18,0.3-36-0.1-54c-0.1-6.6,1.8-9.5,8.9-11.1c19.5-4.4,31.1-18.4,31.3-38.7
		C486.5,283.7,486.7,224,486.1,164.3z M346.4,259.4c0,0.8-0.5,1.6-1.6,4.5c-34.7,0-69.4,0-104.1,0c-23.6,0-47.2-0.4-70.8,0.2
		c-5.9,0.2-12.5,2.4-17.5,5.9c-14.4,9.8-28.1,20.7-44.5,33c0-14.2,0-25.8,0-38.6c-13.9,0-26.2,0-39.6,0c-0.4-4.8-1.1-8.4-1.1-12.1
		c-0.1-51.9,0.2-103.8-0.3-155.7C66.9,87,69.6,84,79.3,84c85.3,0.4,170.7,0.2,256.1,0.1c6.6,0,11.6,0.4,11.5,9.3
		C346.4,148.8,346.5,204.1,346.4,259.4z"/>
	<circle class="st0Unique" cx="141.7" cy="175.8" r="22"/>
	<circle class="st0Unique" cx="216.3" cy="175.8" r="22"/>
	<circle class="st0Unique" cx="290.9" cy="175.8" r="22"/>
</g>
</svg>
