<?xml version="1.0" encoding="utf-8"?>
<!-- Generator: Adobe Illustrator 27.1.1, SVG Export Plug-In . SVG Version: 6.00 Build 0)  -->
<svg version="1.1" id="Layer_1" xmlns="http://www.w3.org/2000/svg" xmlns:xlink="http://www.w3.org/1999/xlink" x="0px" y="0px"
	 viewBox="0 0 500 500" style="enable-background:new 0 0 500 500;" xml:space="preserve">
<style type="text/css">
	.st0{fill:#1A1A1A;}
</style>
<path class="st0" d="M361.2,82.9H138.7c-30.8,0-55.8,25-55.8,55.8v222.5c0,30.8,25,55.9,55.8,55.9h222.5c30.8,0,55.9-25,55.9-55.9
	V138.7C417.1,107.9,392.1,82.9,361.2,82.9z M356.3,338.7c0,9.7-7.9,17.6-17.6,17.6H161.3c-9.7,0-17.6-7.9-17.6-17.6V161.3
	c0-9.7,7.9-17.6,17.6-17.6h177.4c9.7,0,17.6,7.9,17.6,17.6V338.7z M214.5,295.3c-5.6,0-10.1-4.6-10.1-10.2v-70.8
	c0-5.6,4.5-10.2,10.1-10.2h70.9c5.6,0,10.1,4.6,10.1,10.2v70.8c0,5.6-4.5,10.2-10.1,10.2H214.5z"/>
</svg>
