<?xml version="1.0" encoding="utf-8"?>
<!-- Generator: Adobe Illustrator 27.6.1, SVG Export Plug-In . SVG Version: 6.00 Build 0)  -->
<svg version="1.1" id="Layer_1" xmlns="http://www.w3.org/2000/svg" xmlns:xlink="http://www.w3.org/1999/xlink" x="0px" y="0px"
	 viewBox="0 0 300 300" style="enable-background:new 0 0 300 300;" xml:space="preserve">
<style type="text/css">
	.st0{fill:#FFFFFF;}
	.st1{fill-rule:evenodd;clip-rule:evenodd;fill:#FFFFFF;}
</style>
<path class="st0" d="M221.8,139c-1.3-0.6-2.6-1.2-3.9-1.8c-2.3-42.7-25.6-67.1-64.8-67.3c-0.2,0-0.4,0-0.5,0
	c-23.4,0-42.9,10-54.9,28.2l21.5,14.8c9-13.6,23-16.5,33.3-16.5c0.1,0,0.2,0,0.4,0c12.9,0.1,22.6,3.8,28.9,11.1
	c4.6,5.3,7.6,12.7,9.2,21.9c-11.4-1.9-23.8-2.5-37-1.8c-37.2,2.1-61.1,23.8-59.5,54c0.8,15.3,8.4,28.5,21.5,37
	c11,7.3,25.2,10.8,39.9,10c19.5-1.1,34.7-8.5,45.4-22.1c8.1-10.3,13.2-23.7,15.5-40.5c9.3,5.6,16.1,13,19.9,21.8
	c6.5,15,6.8,39.8-13.3,59.9c-17.7,17.7-38.9,25.3-71.1,25.5c-35.6-0.3-62.6-11.7-80.1-34c-16.4-20.9-24.9-51-25.2-89.5
	c0.3-38.6,8.8-68.7,25.2-89.5c17.5-22.3,44.5-33.7,80.1-34c35.9,0.3,63.3,11.7,81.5,34.1c8.9,11,15.6,24.8,20.1,40.9l25.2-6.7
	c-5.4-19.8-13.8-36.9-25.3-51C230.4,15.1,196.3,0.4,152.3,0.1h-0.2C108.3,0.4,74.6,15.1,51.9,43.9c-20.2,25.6-30.6,61.3-30.9,106
	l0,0.1l0,0.1c0.3,44.7,10.7,80.4,30.9,106c22.7,28.8,56.4,43.6,100.2,43.9h0.2c39-0.3,66.5-10.5,89.1-33.1
	c29.6-29.6,28.7-66.7,19-89.5C253.4,161.1,240,147.8,221.8,139z M154.4,202.3c-16.3,0.9-33.2-6.4-34.1-22.1
	c-0.6-11.6,8.3-24.6,35.1-26.1c3.1-0.2,6.1-0.3,9-0.3c9.7,0,18.8,0.9,27.1,2.8C188.5,195.2,170.4,201.5,154.4,202.3z"/>
</svg>
