<svg version="1.1" id="Layer_1" xmlns="http://www.w3.org/2000/svg" xmlns:xlink="http://www.w3.org/1999/xlink" x="0px" y="0px" style="enable-background:new 0 0 300 300;" xml:space="preserve" viewBox="50.57 73.8 198.83 151.43">
<style type="text/css">
	.st0{fill:#06C167;}
	.st1{fill:#F6F0EA;}
</style>
<g id="Layer_3">
	<g id="Layer_2_00000072981115541379817210000012561718327364451203_">
		<g id="Squircles">
			<path class="st0" d="M144,199.5c0.1-8.3-6.6-15.2-14.9-15.3c-8.3-0.1-15.2,6.6-15.3,14.9c-0.1,8.3,6.6,15.2,14.9,15.3     c0.1,0,0.1,0,0.2,0c8.2,0.1,15-6.5,15.1-14.7C144,199.6,144,199.5,144,199.5 M156.3,175.1v49h-12.6v-4.4     c-4.5,3.6-10.1,5.6-15.8,5.5c-14.2,0.4-26-10.8-26.4-25s10.8-26,25-26.4c0.5,0,0.9,0,1.4,0c5.8,0,11.4,2,15.9,5.7v-4.4     L156.3,175.1z M198,212.9h-9.5c-2.9,0-4.7-1.3-4.7-3.8v-22.9H198v-11h-14.1v-14h-12.7v14h-9.5v11.1h9.6v26     c0,6.6,4.7,11.8,13.3,11.8h13.6L198,212.9z M226.7,225.2c14.5,0,22.7-6.8,22.7-16.2c0-6.7-4.8-11.7-15-13.8l-10.7-2.2     c-6.2-1.1-8.2-2.3-8.2-4.5c0-3,3-4.8,8.5-4.8c6,0,10.4,1.6,11.6,7h12.6c-0.7-10.2-8.2-17-23.4-17c-13.1,0-22.4,5.3-22.4,15.6     c0,7.1,5.1,11.8,16,14l12,2.7c4.7,0.9,6,2.1,6,4.1c0,3.1-3.6,5-9.3,5c-7.3,0-11.4-1.6-13-7h-12.7     C203.2,218.4,211,225.2,226.7,225.2 M50.6,157.7H98V169H63.4v16.2h33.7v10.9H63.4v16.3H98v11.3H50.6V157.7z"/>
			<path class="st1" d="M248.3,100.3v-8.9h-3.4c-4.8-0.2-9.3,2.2-11.8,6.3v-6h-9.6v48.2h9.7v-27.4c0-7.5,4.6-12.3,11-12.3     L248.3,100.3L248.3,100.3z M178.3,111.6c1.6-8.3,9.7-13.7,17.9-12c6.1,1.2,10.8,5.9,12,12H178.3z M193.6,90.9     c-13.8-0.1-25.1,11-25.3,24.8c0,0.1,0,0.2,0,0.2c0,14.4,11.4,25.2,26.1,25.2c8.3,0.2,16.2-3.7,21.2-10.3l-7-5.1     c-3.3,4.6-8.5,7.2-14.2,7.1c-8.1,0.1-15-5.7-16.3-13.7H218V116c0-14.4-10.4-25.1-24.6-25.1 M138,132.8     c-9.2-0.1-16.7-7.6-16.6-16.9c0.1-9.2,7.6-16.7,16.9-16.6c9.2,0.1,16.6,7.5,16.6,16.7C154.8,125.3,147.3,132.8,138,132.8     L138,132.8 M111.6,140.1h9.6V134c4.7,4.7,11,7.3,17.5,7.3c13.9,0.4,25.5-10.6,25.9-24.5S154,91.3,140.1,90.9c-0.5,0-0.9,0-1.4,0     c-6.6,0-12.8,2.6-17.5,7.3V73.8h-9.7L111.6,140.1z M77.3,132.3c9.3,0,16.6-7.1,16.6-17.6V73.8H104V140H94v-6.2     c-4.7,4.7-11.1,7.4-17.8,7.3c-14.5,0-25.5-10.3-25.5-25.9V73.8h10.2v40.9C60.8,125.4,67.9,132.3,77.3,132.3"/>
		</g>
	</g>
</g>
<g id="Layer_4">
</g>
</svg>