<?xml version="1.0" encoding="UTF-8"?>
<svg id="Layer_1" data-name="Layer 1" xmlns="http://www.w3.org/2000/svg" viewBox="0 0 300 300">
  <defs>
    <style>
      .cls-1 {
        fill: #fff;
        fill-rule: evenodd;
      }
    </style>
  </defs>
  <path class="cls-1" d="M156.1,128.5v-5.6h16.7v78.6h-9.6c-3.9,0-7.1-3.2-7.2-7.1h0c-6.7,4.9-15.1,7.9-24.1,7.9-22.6,0-40.8-18.3-40.8-40.8s18.3-40.8,40.8-40.8c9.1-.1,17.4,2.9,24.2,7.8h0Zm-69.3-30.9v2.5c0,4.8-.6,8.6-3.7,13.2l-.4,.4c-.7,.8-2.3,2.6-3,3.5L25.9,184.7h60.9v9.6c0,4-3.2,7.2-7.2,7.2H.8v-4.5c0-5.5,1.4-8,3.1-10.5L61.2,115.6H3.2v-18s83.6,0,83.6,0Zm106.4,103.9c-3.3,0-6-2.7-6-6V97.6h17.9v103.9s-11.9,0-11.9,0Zm64.9-81.3c22.7,0,41.1,18.4,41.1,41.1s-18.4,41.1-41.1,41.1-41.1-18.4-41.1-41.1,18.4-41.1,41.1-41.1Zm-126.1,65.3c13.3,0,24-10.7,24-24s-10.8-24-24-24-24,10.8-24,24,10.7,24,24,24Zm126.1-.1c13.4,0,24.2-10.8,24.2-24.2s-10.8-24.2-24.2-24.2-24.2,10.8-24.2,24.2c0,13.4,10.8,24.2,24.2,24.2Z"/>
</svg>